<svg id="Слой_1" data-name="Слой 1" xmlns="http://www.w3.org/2000/svg" viewBox="0 0 2614.68 1165.46">
  <g>
    <g id="Фундамент">
      <g>
        <polygon points="1678.31 754.7 1677.04 756.01 1538.09 756.01 1539.36 754.7 1678.31 754.7" style="fill: #818a61"/>
        <polygon points="1539.36 754.7 1538.09 756.01 1527.16 598.57 1528.43 597.25 1539.36 754.7" style="fill: #818a61"/>
        <polygon points="1667.4 597.25 1678.31 754.7 1539.36 754.7 1528.43 597.25 1667.4 597.25" style="fill: #cfdb98"/>
      </g>
      <g>
        <polygon points="1667.85 600.56 1666.58 601.88 930.75 601.88 932.02 600.56 1667.85 600.56" style="fill: #818a61"/>
        <polygon points="932.02 600.56 930.75 601.88 906.73 255.5 908 254.19 932.02 600.56" style="fill: #818a61"/>
        <polygon points="1643.83 254.19 1667.85 600.56 932.02 600.56 908 254.19 1643.83 254.19" style="fill: #cfdb98"/>
      </g>
      <g>
        <polygon points="1266.74 644.26 1265.47 645.57 1034.16 645.57 1035.43 644.26 1266.74 644.26" style="fill: #818a61"/>
        <polygon points="1035.43 644.26 1034.16 645.57 1030.94 599.07 1032.21 597.76 1035.43 644.26" style="fill: #818a61"/>
        <polygon points="1263.52 597.76 1266.74 644.26 1035.43 644.26 1032.21 597.76 1263.52 597.76" style="fill: #cfdb98"/>
      </g>
      <g>
        <polygon points="1568.62 754.54 1567.35 755.86 941.43 755.86 942.71 754.54 1568.62 754.54" style="fill: #818a61"/>
        <polygon points="942.71 754.54 941.43 755.86 929.32 581.2 930.59 579.88 942.71 754.54" style="fill: #818a61"/>
        <polygon points="1556.51 579.88 1568.62 754.54 942.71 754.54 930.59 579.88 1556.51 579.88" style="fill: #cfdb98"/>
      </g>
      <polygon points="1659.1 486.24 1670.02 643.68 1531.82 643.68 1520.9 486.24 1659.1 486.24" style="fill: #cfdb98"/>
    </g>
    <g id="Аудитории">
      <g id="MLOC-rooms-G">
        <g id="room-380a">
          <g>
            <polygon points="1675.85 746.15 1669.5 752.73 1487.56 752.73 1493.91 746.15 1675.85 746.15" style="fill: #7a7a75"/>
            <polygon points="1493.91 746.15 1487.56 752.73 1477.35 605.69 1483.71 599.11 1493.91 746.15" style="fill: #7a7a75"/>
            <polygon points="1665.66 599.11 1675.85 746.15 1493.91 746.15 1483.71 599.11 1665.66 599.11" style="fill: #bcb9b2"/>
          </g>
        </g>
        <g id="room-380">
          <g>
            <polygon points="1527.4 774.16 1521.05 780.74 1313.64 780.74 1320 774.16 1527.4 774.16" style="fill: #7a7a75"/>
            <polygon points="1320 774.16 1313.64 780.74 1301.51 605.79 1307.86 599.21 1320 774.16" style="fill: #7a7a75"/>
            <polygon points="1515.26 599.21 1527.4 774.16 1320 774.16 1307.86 599.21 1515.26 599.21" style="fill: #bcb9b2"/>
          </g>
        </g>
        <g id="room-379">
          <g>
            <polygon points="1307.04 774.16 1300.69 780.74 1122.96 780.74 1129.31 774.16 1307.04 774.16" style="fill: #7a7a75"/>
            <polygon points="1129.31 774.16 1122.96 780.74 1110.83 605.79 1117.18 599.21 1129.31 774.16" style="fill: #7a7a75"/>
            <polygon points="1294.9 599.21 1307.04 774.16 1129.31 774.16 1117.18 599.21 1294.9 599.21" style="fill: #bcb9b2"/>
          </g>
        </g>
        <g id="room-383">
          <g>
            <polygon points="1019.14 568.79 1012.79 575.37 941.76 575.37 948.11 568.79 1019.14 568.79" style="fill: #7a7a75"/>
            <polygon points="948.11 568.79 941.76 575.37 937.86 519.07 944.21 512.49 948.11 568.79" style="fill: #7a7a75"/>
            <polygon points="1015.24 512.49 1019.14 568.79 948.11 568.79 944.21 512.49 1015.24 512.49" style="fill: #bcb9b2"/>
          </g>
        </g>
        <g id="room-384">
          <g>
            <polygon points="1014.77 499.88 1008.42 506.45 937.9 506.45 944.25 499.88 1014.77 499.88" style="fill: #7a7a75"/>
            <polygon points="944.25 499.88 937.9 506.45 935.74 475.4 942.1 468.83 944.25 499.88" style="fill: #7a7a75"/>
            <polygon points="1012.62 468.83 1014.77 499.88 944.25 499.88 942.1 468.83 1012.62 468.83" style="fill: #bcb9b2"/>
          </g>
        </g>
        <g id="room-385">
          <g>
            <polygon points="1011.73 457.28 1005.38 463.86 934.86 463.86 941.21 457.28 1011.73 457.28" style="fill: #7a7a75"/>
            <polygon points="941.21 457.28 934.86 463.86 932.71 432.81 939.06 426.23 941.21 457.28" style="fill: #7a7a75"/>
            <polygon points="1009.58 426.23 1011.73 457.28 941.21 457.28 939.06 426.23 1009.58 426.23" style="fill: #bcb9b2"/>
          </g>
        </g>
        <g id="room-386">
          <g>
            <polygon points="1009.66 414.25 1003.31 420.83 930.37 420.83 936.72 414.25 1009.66 414.25" style="fill: #7a7a75"/>
            <polygon points="936.72 414.25 930.37 420.83 925.32 347.89 931.67 341.32 936.72 414.25" style="fill: #7a7a75"/>
            <polygon points="1004.6 341.32 1009.66 414.25 936.72 414.25 931.67 341.32 1004.6 341.32" style="fill: #bcb9b2"/>
          </g>
        </g>
        <g id="stairs-393">
          <g>
            <polygon points="1665.52 586.55 1659.16 593.12 1579.38 593.12 1585.73 586.55 1665.52 586.55" style="fill: #955f21"/>
            <polygon points="1585.73 586.55 1579.38 593.12 1576.85 556.65 1583.2 550.07 1585.73 586.55" style="fill: #955f21"/>
            <polygon points="1662.99 550.07 1665.52 586.55 1585.73 586.55 1583.2 550.07 1662.99 550.07" style="fill: #ed9337"/>
          </g>
        </g>
        <g id="stairs-391">
          <g>
            <polygon points="1645.89 294.76 1639.54 301.34 1559.76 301.34 1566.11 294.76 1645.89 294.76" style="fill: #955f21"/>
            <polygon points="1566.11 294.76 1559.76 301.34 1557.23 264.86 1563.58 258.29 1566.11 294.76" style="fill: #955f21"/>
            <polygon points="1643.36 258.29 1645.89 294.76 1566.11 294.76 1563.58 258.29 1643.36 258.29" style="fill: #ed9337"/>
          </g>
        </g>
        <g id="stairs-387">
          <g>
            <polygon points="1007.89 294.18 1001.54 300.76 921.76 300.76 928.11 294.18 1007.89 294.18" style="fill: #955f21"/>
            <polygon points="928.11 294.18 921.76 300.76 919.23 264.28 925.58 257.71 928.11 294.18" style="fill: #955f21"/>
            <polygon points="1005.37 257.71 1007.89 294.18 928.11 294.18 925.58 257.71 1005.37 257.71" style="fill: #ed9337"/>
          </g>
        </g>
      </g>
    </g>
    <g id="Стены">
      <g>
        <polygon points="960.61 740.46 954.26 747.04 952.3 747.04 958.65 740.46 960.61 740.46" style="fill: #7a7a75"/>
        <polygon points="958.65 740.46 952.3 747.04 940.93 583.07 947.28 576.5 958.65 740.46" style="fill: #7a7a75"/>
        <polygon points="949.24 576.5 960.61 740.46 958.65 740.46 947.28 576.5 949.24 576.5" style="fill: #bcb9b2"/>
      </g>
      <g>
        <polygon points="930.66 331.23 924.31 337.81 922.35 337.81 928.7 331.23 930.66 331.23" style="fill: #7a7a75"/>
        <polygon points="928.7 331.23 922.35 337.81 920.31 308.35 926.66 301.77 928.7 331.23" style="fill: #7a7a75"/>
        <polygon points="928.62 301.77 930.66 331.23 928.7 331.23 926.66 301.77 928.62 301.77" style="fill: #bcb9b2"/>
      </g>
      <g>
        <polygon points="1570.43 586.06 1564.08 592.64 1109.24 592.64 1115.59 586.06 1570.43 586.06" style="fill: #7a7a75"/>
        <polygon points="1115.59 586.06 1109.24 592.64 1109.11 590.66 1115.46 584.09 1115.59 586.06" style="fill: #7a7a75"/>
        <polygon points="1570.3 584.09 1570.43 586.06 1115.59 586.06 1115.46 584.09 1570.3 584.09" style="fill: #bcb9b2"/>
      </g>
      <g>
        <polygon points="1659.58 534.08 1653.23 540.66 1651.26 540.66 1657.61 534.08 1659.58 534.08" style="fill: #7a7a75"/>
        <polygon points="1657.61 534.08 1651.26 540.66 1635.6 314.86 1641.95 308.29 1657.61 534.08" style="fill: #7a7a75"/>
        <polygon points="1643.92 308.29 1659.58 534.08 1657.61 534.08 1641.95 308.29 1643.92 308.29" style="fill: #bcb9b2"/>
      </g>
      <g>
        <path d="M1169.68,629.62a.81.81,0,0,0-.83.81v.08l.25,3.56a.82.82,0,0,1-.74.89h-2.76l-.94-13.37a2,2,0,0,0-1.33-1.69l-.27-.09h4.15a1,1,0,0,1,1,.89l.18,2.68a1,1,0,0,0,1,.89.82.82,0,0,0,.82-.82v-.07l-.18-2.68a2.92,2.92,0,0,0-2.87-2.68h-9.8a1.66,1.66,0,0,0-1.67,1.64.76.76,0,0,0,0,.15l1.13,16.05a2,2,0,0,0,1.33,1.7l5.49,1.78a2.11,2.11,0,0,0,.55.09,1.66,1.66,0,0,0,1.67-1.63.81.81,0,0,0,0-.16l-.06-.89h2.67a2.48,2.48,0,0,0,2.5-2.46,1.62,1.62,0,0,0,0-.22l-.25-3.56A1,1,0,0,0,1169.68,629.62Z" transform="translate(-76.35 -49.37)" style="fill: #010202"/>
        <path d="M1177.21,626.27l-3.79-3.56a.91.91,0,0,0-1-.2.82.82,0,0,0-.49.83l.18,2.67h-3.56a.82.82,0,0,0-.83.8v.09a1,1,0,0,0,1,.89h3.55l.2,2.68a1,1,0,0,0,.61.83.86.86,0,0,0,1-.2l3.32-3.57A.9.9,0,0,0,1177.21,626.27Z" transform="translate(-76.35 -49.37)" style="fill: #010202"/>
      </g>
      <g>
        <polygon points="1549.82 260.91 1543.47 267.48 1011.78 267.48 1018.14 260.91 1549.82 260.91" style="fill: #7a7a75"/>
        <polygon points="1018.14 260.91 1011.78 267.48 1011.65 265.52 1018 258.95 1018.14 260.91" style="fill: #7a7a75"/>
        <polygon points="1549.69 258.95 1549.82 260.91 1018.14 260.91 1018 258.95 1549.69 258.95" style="fill: #bcb9b2"/>
      </g>
      <g>
        <polygon points="1069.54 585.21 1063.19 591.78 1061.23 591.78 1067.58 585.21 1069.54 585.21" style="fill: #7a7a75"/>
        <polygon points="1067.58 585.21 1061.23 591.78 1041.22 303.19 1047.57 296.61 1067.58 585.21" style="fill: #7a7a75"/>
        <polygon points="1049.53 296.61 1069.54 585.21 1067.58 585.21 1047.57 296.61 1049.53 296.61" style="fill: #bcb9b2"/>
      </g>
      <g>
        <path d="M1131,333.57a.82.82,0,0,0-.82.82v.08l.24,3.56a.82.82,0,0,1-.75.9h-2.75l-.94-13.38a1.93,1.93,0,0,0-1.34-1.69l-.26-.08h4.14a1,1,0,0,1,1,.88l.19,2.67a1,1,0,0,0,.95.9.82.82,0,0,0,.83-.81v-.09l-.18-2.67a2.93,2.93,0,0,0-2.87-2.67h-9.81a1.64,1.64,0,0,0-1.66,1.63.92.92,0,0,0,0,.16l1.11,16a2,2,0,0,0,1.35,1.7l5.48,1.79a1.77,1.77,0,0,0,.56.08,1.65,1.65,0,0,0,1.67-1.61c0-.06,0-.11,0-.17l-.06-.89h2.68a2.48,2.48,0,0,0,2.5-2.44,1.93,1.93,0,0,0,0-.24l-.25-3.56A1,1,0,0,0,1131,333.57Z" transform="translate(-76.35 -49.37)" style="fill: #010202"/>
        <path d="M1138.53,330.27l-3.81-3.52a.92.92,0,0,0-1-.19.82.82,0,0,0-.5.82l.19,2.69h-3.57a.82.82,0,0,0-.83.81V331a1,1,0,0,0,1,.89h3.56l.2,2.68a.94.94,0,0,0,.6.82.86.86,0,0,0,1-.19l3.31-3.57a.88.88,0,0,0,0-1.26Z" transform="translate(-76.35 -49.37)" style="fill: #010202"/>
      </g>
    </g>
    <g id="Тексты">
      <text transform="matrix(1, 0, 0.07, 1, 967.48, 543.93)" style="isolation: isolate;font-size: 14.708361625671387px;fill: #1e1e1c;font-family: Arial-BoldMT, Arial;font-weight: 700">383</text>
      <g style="isolation: isolate">
        <text transform="matrix(1, 0, 0.07, 1, 1298.96, 422.89)" style="isolation: isolate;font-size: 19.794435501098633px;fill: #1e1e1c;font-family: Arial-BoldMT, Arial;font-weight: 700">А</text>
        <text transform="matrix(1, 0, 0.07, 1, 1313.22, 422.89)" style="isolation: isolate;font-size: 19.794435501098633px;fill: #1e1e1c;font-family: Arial-BoldMT, Arial;font-weight: 700;letter-spacing: 0.023986122039729177em">К</text>
        <text transform="matrix(1, 0, 0.07, 1, 1325.76, 422.89)" style="isolation: isolate;font-size: 19.794435501098633px;fill: #1e1e1c;font-family: Arial-BoldMT, Arial;font-weight: 700;letter-spacing: -0.023986122039729177em">Т</text>
        <text transform="matrix(1, 0, 0.07, 1, 1337.33, 422.89)" style="isolation: isolate;font-size: 19.794435501098633px;fill: #1e1e1c;font-family: Arial-BoldMT, Arial;font-weight: 700">ОВЫЙ З</text>
        <text transform="matrix(1, 0, 0.07, 1, 1418.34, 422.89)" style="isolation: isolate;font-size: 19.794435501098633px;fill: #1e1e1c;font-family: Arial-BoldMT, Arial;font-weight: 700;letter-spacing: 0.012017788980730292em">А</text>
        <text transform="matrix(1, 0, 0.07, 1, 1432.83, 422.89)" style="isolation: isolate;font-size: 19.794435501098633px;fill: #1e1e1c;font-family: Arial-BoldMT, Arial;font-weight: 700">Л</text>
      </g>
      <text transform="matrix(1, 0, 0.07, 1, 961.58, 446.9)" style="isolation: isolate;font-size: 14.708361625671387px;fill: #1e1e1c;font-family: Arial-BoldMT, Arial;font-weight: 700">385</text>
      <text transform="matrix(1, 0, 0.07, 1, 956.18, 382.85)" style="isolation: isolate;font-size: 14.708361625671387px;fill: #1e1e1c;font-family: Arial-BoldMT, Arial;font-weight: 700">386</text>
      <text transform="matrix(1, 0, 0.07, 1, 965.18, 489.62)" style="isolation: isolate;font-size: 14.708361625671387px;fill: #1e1e1c;font-family: Arial-BoldMT, Arial;font-weight: 700">384</text>
      <text transform="matrix(1, 0, 0.07, 1, 1210.24, 676.62)" style="isolation: isolate;font-size: 14.708361625671387px;fill: #1e1e1c;font-family: Arial-BoldMT, Arial;font-weight: 700">379</text>
      <text transform="matrix(1, 0, 0.07, 1, 1504.49, 675.92)" style="isolation: isolate;font-size: 14.708361625671387px;fill: #1e1e1c;font-family: Arial-BoldMT, Arial;font-weight: 700">380</text>
    </g>
    <g id="Иконки">
      <g>
        <path d="M1047.45,320.32h-4.25a.32.32,0,0,0-.32.32v0l.2,2.82a.34.34,0,0,1-.31.36h-4.62a.32.32,0,0,0-.34.31.06.06,0,0,0,0,0l.2,2.83a.33.33,0,0,1-.32.35h-4.25a.34.34,0,0,0-.34.34v0l.2,2.82a.34.34,0,0,1-.31.36h-3.89a.66.66,0,0,0-.66.65.13.13,0,0,0,0,.06l.14,2.13a.77.77,0,0,0,.76.7h19.06a.65.65,0,0,0,.65-.63v-.07l-.89-12.75A.77.77,0,0,0,1047.45,320.32Z" transform="translate(-76.35 -49.37)" style="fill: #010202"/>
        <path d="M1048.15,315.57h0a.44.44,0,0,0-.08-.11l-1.89-1.77a.35.35,0,0,0-.5.5l1.25,1.16h-6.54a.66.66,0,0,0-.67.64.17.17,0,0,0,0,.07l.19,2.84h-4.24a.65.65,0,0,0-.66.64v.06l.18,2.84H1031a.66.66,0,0,0-.67.64.2.2,0,0,0,0,.07l.15,2.12H1028a.34.34,0,0,0-.34.33v0a.4.4,0,0,0,.39.36h2.47a.65.65,0,0,0,.66-.64v-.07l-.14-2.12h4.23a.66.66,0,0,0,.67-.64v-.07l-.2-2.8H1040a.64.64,0,0,0,.66-.64v-.06l-.19-2.84H1047l-1.08,1.17a.35.35,0,0,0-.08.35.4.4,0,0,0,.27.24.31.31,0,0,0,.34-.09l1.64-1.77A.33.33,0,0,0,1048.15,315.57Z" transform="translate(-76.35 -49.37)" style="fill: #010202"/>
      </g>
      <g>
        <path d="M1708,613.93h-4.24a.31.31,0,0,0-.33.31v0l.2,2.83a.33.33,0,0,1-.31.35h-4.62a.32.32,0,0,0-.33.32s0,0,0,0l.2,2.82a.34.34,0,0,1-.31.36H1694a.34.34,0,0,0-.34.33v0l.2,2.82a.34.34,0,0,1-.31.36h-3.84a.65.65,0,0,0-.66.64.15.15,0,0,0,0,.07l.14,2.12a.77.77,0,0,0,.76.7H1709a.64.64,0,0,0,.65-.62v-.08l-.89-12.74A.75.75,0,0,0,1708,613.93Z" transform="translate(-76.35 -49.37)" style="fill: #010202"/>
        <path d="M1708.75,609.19h0a.21.21,0,0,0-.08-.11l-1.89-1.77a.35.35,0,0,0-.5,0,.37.37,0,0,0,0,.5l1.25,1.16H1701a.65.65,0,0,0-.67.63.22.22,0,0,0,0,.08l.19,2.83h-4.24a.66.66,0,0,0-.66.64v.06l.19,2.84h-4.23a.66.66,0,0,0-.67.64.13.13,0,0,0,0,.06l.15,2.13h-2.48a.32.32,0,0,0-.33.32v0a.4.4,0,0,0,.38.36h2.47a.65.65,0,0,0,.66-.64v-.07l-.14-2.13h4.24a.66.66,0,0,0,.66-.64v-.06l-.2-2.84h4.24a.63.63,0,0,0,.66-.63v-.07l-.19-2.83h6.57l-1.08,1.17a.31.31,0,0,0-.07.34.4.4,0,0,0,.26.25.34.34,0,0,0,.35-.1l1.64-1.76A.32.32,0,0,0,1708.75,609.19Z" transform="translate(-76.35 -49.37)" style="fill: #010202"/>
      </g>
      <g>
        <path d="M1688.44,323.15h-4.25a.32.32,0,0,0-.33.32v0l.2,2.84a.33.33,0,0,1-.3.35h-4.63a.32.32,0,0,0-.33.31v0l.2,2.83a.34.34,0,0,1-.3.36h-4.23a.31.31,0,0,0-.32.3v0l.19,2.84a.31.31,0,0,1-.29.35h-3.93a.66.66,0,0,0-.66.66v0l.15,2.12a.78.78,0,0,0,.76.71h19.1a.66.66,0,0,0,.67-.63.22.22,0,0,0,0-.08l-.89-12.73A.77.77,0,0,0,1688.44,323.15Z" transform="translate(-76.35 -49.37)" style="fill: #010202"/>
        <path d="M1689.14,318.42h0a.36.36,0,0,0-.08-.12l-1.9-1.77a.34.34,0,0,0-.48,0h0a.33.33,0,0,0,0,.47l0,0,1.24,1.17h-6.58a.63.63,0,0,0-.65.64v.07l.2,2.82h-4.25a.66.66,0,0,0-.66.65.13.13,0,0,0,0,.06l.19,2.83h-4.25a.65.65,0,0,0-.65.65V326l.14,2.12h-2.48a.32.32,0,0,0-.32.33v0a.37.37,0,0,0,.37.35h2.48a.67.67,0,0,0,.67-.66.09.09,0,0,0,0-.05L1672,326h4.25a.65.65,0,0,0,.66-.66v-.05l-.2-2.83h4.25a.66.66,0,0,0,.66-.65v-.06l-.21-2.82H1688l-1.08,1.16a.33.33,0,0,0-.08.34.43.43,0,0,0,.27.26.36.36,0,0,0,.34-.1l1.65-1.76A.36.36,0,0,0,1689.14,318.42Z" transform="translate(-76.35 -49.37)" style="fill: #010202"/>
      </g>
    </g>
  </g>
  <g>
    <g id="Фундамент-2" data-name="Фундамент">
      <g id="Под_30" data-name="Под 30">
        <g>
          <polygon points="2614.68 1121.84 2614.18 1122.36 2363.53 1122.36 2364.03 1121.84 2614.68 1121.84" style="fill: #818a61"/>
          <polygon points="2364.03 1121.84 2363.53 1122.36 2353.43 976.55 2353.93 976.03 2364.03 1121.84" style="fill: #818a61"/>
          <polygon points="2604.57 976.03 2614.68 1121.84 2364.03 1121.84 2353.93 976.03 2604.57 976.03" style="fill: #cfdb98"/>
        </g>
      </g>
      <g>
        <polygon points="2548.28 848.97 2547.03 850.26 2268.78 850.26 2270.03 848.97 2548.28 848.97" style="fill: #818a61"/>
        <polygon points="2270.03 848.97 2268.78 850.26 2209.89 1.29 2211.14 0 2270.03 848.97" style="fill: #818a61"/>
        <polygon points="2489.39 0 2548.28 848.97 2270.03 848.97 2211.14 0 2489.39 0" style="fill: #cfdb98"/>
      </g>
      <g>
        <polygon points="2565.3 1093.23 2564.05 1094.52 1720.92 1094.52 1722.17 1093.23 2565.3 1093.23" style="fill: #818a61"/>
        <polygon points="1722.17 1093.23 1720.92 1094.52 1702.64 830.97 1703.89 829.68 1722.17 1093.23" style="fill: #818a61"/>
        <polygon points="2547.01 829.68 2565.3 1093.23 1722.17 1093.23 1703.89 829.68 2547.01 829.68" style="fill: #cfdb98"/>
      </g>
      <polygon points="2571.14 1067.91 2573.49 1101.59 2362.64 1101.59 2360.3 1067.91 2571.14 1067.91" style="fill: #cfdb98"/>
    </g>
    <g id="Аудитории-2" data-name="Аудитории">
      <g id="MLOC-rooms-V-2-col">
        <g id="stairs-366">
          <g>
            <polygon points="2549.13 928.52 2542.88 935 2448.28 935 2454.53 928.52 2549.13 928.52" style="fill: #955f21"/>
            <polygon points="2454.53 928.52 2448.28 935 2444.14 875.18 2450.39 868.71 2454.53 928.52" style="fill: #955f21"/>
            <polygon points="2544.97 868.71 2549.13 928.52 2454.53 928.52 2450.39 868.71 2544.97 868.71" style="fill: #ed9337"/>
          </g>
        </g>
        <g id="room-367">
          <g>
            <polygon points="2541.89 850.99 2535.64 857.46 2444.2 857.46 2450.45 850.99 2541.89 850.99" style="fill: #7a7a75"/>
            <polygon points="2450.45 850.99 2444.2 857.46 2436.32 743.76 2442.57 737.29 2450.45 850.99" style="fill: #7a7a75"/>
            <polygon points="2534.01 737.29 2541.89 850.99 2450.45 850.99 2442.57 737.29 2534.01 737.29" style="fill: #bcb9b2"/>
          </g>
        </g>
        <g id="room-372">
          <g>
            <polygon points="2534.91 722.71 2528.66 729.17 2434.09 729.17 2440.34 722.71 2534.91 722.71" style="fill: #7a7a75"/>
            <polygon points="2440.34 722.71 2434.09 729.17 2427.13 628.78 2433.38 622.31 2440.34 722.71" style="fill: #7a7a75"/>
            <polygon points="2527.95 622.31 2534.91 722.71 2440.34 722.71 2433.38 622.31 2527.95 622.31" style="fill: #bcb9b2"/>
          </g>
        </g>
        <g id="room-374">
          <g>
            <polygon points="2525.49 606.54 2519.24 613.01 2424.66 613.01 2430.91 606.54 2525.49 606.54" style="fill: #7a7a75"/>
            <polygon points="2430.91 606.54 2424.66 613.01 2412.41 436.24 2418.66 429.76 2430.91 606.54" style="fill: #7a7a75"/>
            <polygon points="2513.24 429.76 2525.49 606.54 2430.91 606.54 2418.66 429.76 2513.24 429.76" style="fill: #bcb9b2"/>
          </g>
        </g>
        <g id="room-375b">
          <g>
            <polygon points="2512.3 411.69 2506.05 418.16 2411.47 418.16 2417.72 411.69 2512.3 411.69" style="fill: #7a7a75"/>
            <polygon points="2417.72 411.69 2411.47 418.16 2387.28 69.34 2393.53 62.87 2417.72 411.69" style="fill: #7a7a75"/>
            <polygon points="2488.11 62.87 2512.3 411.69 2417.72 411.69 2393.53 62.87 2488.11 62.87" style="fill: #bcb9b2"/>
          </g>
        </g>
        <g id="room-376">
          <g>
            <polygon points="2487.36 46.14 2481.11 52.61 2386.51 52.61 2392.76 46.14 2487.36 46.14" style="fill: #7a7a75"/>
            <polygon points="2392.76 46.14 2386.51 52.61 2383.8 13.36 2390.05 6.89 2392.76 46.14" style="fill: #7a7a75"/>
            <polygon points="2484.63 6.89 2487.36 46.14 2392.76 46.14 2390.05 6.89 2484.63 6.89" style="fill: #bcb9b2"/>
          </g>
        </g>
      </g>
      <g id="MLOC-rooms-V-1-col">
        <g id="room-373">
          <g>
            <polygon points="2376.45 720.46 2370.2 726.92 2275.61 726.92 2281.86 720.46 2376.45 720.46" style="fill: #7a7a75"/>
            <polygon points="2281.86 720.46 2275.61 726.92 2255.86 442.14 2262.11 435.67 2281.86 720.46" style="fill: #7a7a75"/>
            <polygon points="2356.7 435.67 2376.45 720.46 2281.86 720.46 2262.11 435.67 2356.7 435.67" style="fill: #bcb9b2"/>
          </g>
        </g>
        <g id="room-375a">
          <g>
            <polygon points="2355.2 416.52 2348.95 422.99 2254.36 422.99 2260.61 416.52 2355.2 416.52" style="fill: #7a7a75"/>
            <polygon points="2260.61 416.52 2254.36 422.99 2230.8 83.31 2237.05 76.84 2260.61 416.52" style="fill: #7a7a75"/>
            <polygon points="2331.64 76.84 2355.2 416.52 2260.61 416.52 2237.05 76.84 2331.64 76.84" style="fill: #bcb9b2"/>
          </g>
        </g>
        <g id="elevator-370">
          <g>
            <polygon points="2385.74 822.33 2379.49 828.8 2284.91 828.8 2291.16 822.33 2385.74 822.33" style="fill: #3a702e"/>
            <polygon points="2291.16 822.33 2284.91 828.8 2279.14 745.55 2285.39 739.08 2291.16 822.33" style="fill: #3a702e"/>
            <polygon points="2379.97 739.08 2385.74 822.33 2291.16 822.33 2285.39 739.08 2379.97 739.08" style="fill: #5cad31"/>
          </g>
        </g>
        <g id="stairs-378">
          <g>
            <polygon points="2329.76 60.75 2323.51 67.22 2228.93 67.22 2235.18 60.75 2329.76 60.75" style="fill: #955f21"/>
            <polygon points="2235.18 60.75 2228.93 67.22 2225.2 13.61 2231.45 7.14 2235.18 60.75" style="fill: #955f21"/>
            <polygon points="2326.03 7.14 2329.76 60.75 2235.18 60.75 2231.45 7.14 2326.03 7.14" style="fill: #ed9337"/>
          </g>
        </g>
      </g>
      <g id="MLOC-rooms-V-2-row">
        <g id="room-358">
          <g>
            <polygon points="2280.24 928.92 2273.99 935.39 2129.09 935.39 2135.34 928.92 2280.24 928.92" style="fill: #7a7a75"/>
            <polygon points="2135.34 928.92 2129.09 935.39 2122.72 843.58 2128.97 837.11 2135.34 928.92" style="fill: #7a7a75"/>
            <polygon points="2273.86 837.11 2280.24 928.92 2135.34 928.92 2128.97 837.11 2273.86 837.11" style="fill: #bcb9b2"/>
          </g>
        </g>
        <g id="room-355">
          <g>
            <polygon points="2118.11 928.96 2111.86 935.43 1917.13 935.43 1923.38 928.96 2118.11 928.96" style="fill: #7a7a75"/>
            <polygon points="1923.38 928.96 1917.13 935.43 1910.77 843.62 1917.02 837.15 1923.38 928.96" style="fill: #7a7a75"/>
            <polygon points="2111.74 837.15 2118.11 928.96 1923.38 928.96 1917.02 837.15 2111.74 837.15" style="fill: #bcb9b2"/>
          </g>
        </g>
        <g id="room-353">
          <g>
            <polygon points="1907.77 928.96 1901.52 935.43 1848.19 935.43 1854.44 928.96 1907.77 928.96" style="fill: #7a7a75"/>
            <polygon points="1854.44 928.96 1848.19 935.43 1841.84 843.62 1848.09 837.15 1854.44 928.96" style="fill: #7a7a75"/>
            <polygon points="1901.39 837.15 1907.77 928.96 1854.44 928.96 1848.09 837.15 1901.39 837.15" style="fill: #bcb9b2"/>
          </g>
        </g>
        <g id="room-352">
          <g>
            <polygon points="1840.64 928.96 1834.39 935.43 1742.59 935.43 1748.84 928.96 1840.64 928.96" style="fill: #7a7a75"/>
            <polygon points="1748.84 928.96 1742.59 935.43 1736.21 843.62 1742.46 837.15 1748.84 928.96" style="fill: #7a7a75"/>
            <polygon points="1834.28 837.15 1840.64 928.96 1748.84 928.96 1742.46 837.15 1834.28 837.15" style="fill: #bcb9b2"/>
          </g>
        </g>
        <g id="toilet-361">
          <g>
            <polygon points="2394.61 928.96 2388.36 935.43 2293.76 935.43 2300.01 928.96 2394.61 928.96" style="fill: #3b7b90"/>
            <polygon points="2300.01 928.96 2293.76 935.43 2287.41 843.62 2293.66 837.15 2300.01 928.96" style="fill: #3b7b90"/>
            <polygon points="2388.24 837.15 2394.61 928.96 2300.01 928.96 2293.66 837.15 2388.24 837.15" style="fill: #5abfe6"/>
          </g>
        </g>
      </g>
      <g id="MLOC-rooms-V-1-row">
        <g id="room-365">
          <g>
            <polygon points="2609.74 1103.46 2603.49 1109.93 2372.89 1109.93 2379.14 1103.46 2609.74 1103.46" style="fill: #7a7a75"/>
            <polygon points="2379.14 1103.46 2372.89 1109.93 2364.32 986.41 2370.57 979.94 2379.14 1103.46" style="fill: #7a7a75"/>
            <polygon points="2601.18 979.94 2609.74 1103.46 2379.14 1103.46 2370.57 979.94 2601.18 979.94" style="fill: #bcb9b2"/>
          </g>
        </g>
        <g id="room-364">
          <g>
            <polygon points="2365.78 1072.19 2359.53 1078.66 2302.32 1078.66 2308.57 1072.19 2365.78 1072.19" style="fill: #7a7a75"/>
            <polygon points="2308.57 1072.19 2302.32 1078.66 2295.95 986.85 2302.2 980.38 2308.57 1072.19" style="fill: #7a7a75"/>
            <polygon points="2359.41 980.38 2365.78 1072.19 2308.57 1072.19 2302.2 980.38 2359.41 980.38" style="fill: #bcb9b2"/>
          </g>
        </g>
        <g id="room-359">
          <g>
            <polygon points="2296.45 1072.22 2290.2 1078.69 2182.41 1078.69 2188.66 1072.22 2296.45 1072.22" style="fill: #7a7a75"/>
            <polygon points="2188.66 1072.22 2182.41 1078.69 2176.05 986.88 2182.3 980.41 2188.66 1072.22" style="fill: #7a7a75"/>
            <polygon points="2290.09 980.41 2296.45 1072.22 2188.66 1072.22 2182.3 980.41 2290.09 980.41" style="fill: #bcb9b2"/>
          </g>
        </g>
        <g id="room-357">
          <g>
            <polygon points="2178.68 1072.22 2172.43 1078.69 2080.63 1078.69 2086.88 1072.22 2178.68 1072.22" style="fill: #7a7a75"/>
            <polygon points="2086.88 1072.22 2080.63 1078.69 2074.26 986.88 2080.51 980.41 2086.88 1072.22" style="fill: #7a7a75"/>
            <polygon points="2172.32 980.41 2178.68 1072.22 2086.88 1072.22 2080.51 980.41 2172.32 980.41" style="fill: #bcb9b2"/>
          </g>
        </g>
        <g id="room-356">
          <g>
            <polygon points="2076.26 1072.22 2070.01 1078.69 1926.54 1078.69 1932.79 1072.22 2076.26 1072.22" style="fill: #7a7a75"/>
            <polygon points="1932.79 1072.22 1926.54 1078.69 1920.16 986.88 1926.41 980.41 1932.79 1072.22" style="fill: #7a7a75"/>
            <polygon points="2069.89 980.41 2076.26 1072.22 1932.79 1072.22 1926.41 980.41 2069.89 980.41" style="fill: #bcb9b2"/>
          </g>
        </g>
        <g id="room-354">
          <g>
            <polygon points="1920.98 1072.22 1914.73 1078.69 1756.22 1078.69 1762.47 1072.22 1920.98 1072.22" style="fill: #7a7a75"/>
            <polygon points="1762.47 1072.22 1756.22 1078.69 1749.87 986.88 1756.12 980.41 1762.47 1072.22" style="fill: #7a7a75"/>
            <polygon points="1914.62 980.41 1920.98 1072.22 1762.47 1072.22 1756.12 980.41 1914.62 980.41" style="fill: #bcb9b2"/>
          </g>
        </g>
      </g>
    </g>
    <g id="Стена">
      <g>
        <polygon points="2550.86 970.57 2544.61 977.04 2542.66 977.04 2548.91 970.57 2550.86 970.57" style="fill: #7a7a75"/>
        <polygon points="2548.91 970.57 2542.66 977.04 2540.32 943.23 2546.57 936.76 2548.91 970.57" style="fill: #7a7a75"/>
        <polygon points="2548.51 936.76 2550.86 970.57 2548.91 970.57 2546.57 936.76 2548.51 936.76" style="fill: #bcb9b2"/>
      </g>
      <g>
        <polygon points="2379.32 9.16 2373.07 15.63 2334.43 15.63 2340.68 9.16 2379.32 9.16" style="fill: #7a7a75"/>
        <polygon points="2340.68 9.16 2334.43 15.63 2334.3 13.7 2340.55 7.22 2340.68 9.16" style="fill: #7a7a75"/>
        <polygon points="2379.18 7.22 2379.32 9.16 2340.68 9.16 2340.55 7.22 2379.18 7.22" style="fill: #bcb9b2"/>
      </g>
    </g>
    <g id="Тексты-2" data-name="Тексты">
      <text transform="matrix(1, 0, 0.07, 1, 1775.96, 886.26)" style="isolation: isolate;font-size: 21.10279083251953px;fill: #1e1e1c;font-family: Arial-BoldMT, Arial;font-weight: 700">352</text>
      <text transform="matrix(1, 0, 0.07, 1, 1816.88, 1030.52)" style="isolation: isolate;font-size: 21.10279083251953px;fill: #1e1e1c;font-family: Arial-BoldMT, Arial;font-weight: 700">354</text>
      <text transform="matrix(1, 0, 0.07, 1, 2317.13, 1029.52)" style="isolation: isolate;font-size: 21.10279083251953px;fill: #1e1e1c;font-family: Arial-BoldMT, Arial;font-weight: 700">364</text>
      <text transform="matrix(1, 0, 0.07, 1, 1861.81, 886.26)" style="isolation: isolate;font-size: 21.10279083251953px;fill: #1e1e1c;font-family: Arial-BoldMT, Arial;font-weight: 700">353</text>
      <text transform="matrix(1, 0, 0.07, 1, 1986.52, 1030.52)" style="isolation: isolate;font-size: 21.10279083251953px;fill: #1e1e1c;font-family: Arial-BoldMT, Arial;font-weight: 700">356</text>
      <text transform="matrix(1, 0, 0.07, 1, 2113.33, 1029.55)" style="isolation: isolate;font-size: 21.10279083251953px;fill: #1e1e1c;font-family: Arial-BoldMT, Arial;font-weight: 700">357</text>
      <text transform="matrix(1, 0, 0.07, 1, 1998.21, 886.26)" style="isolation: isolate;font-size: 21.10279083251953px;fill: #1e1e1c;font-family: Arial-BoldMT, Arial;font-weight: 700">355</text>
      <text transform="matrix(1, 0, 0.07, 1, 2188, 886.26)" style="isolation: isolate;font-size: 21.10279083251953px;fill: #1e1e1c;font-family: Arial-BoldMT, Arial;font-weight: 700">358</text>
      <text transform="matrix(1, 0, 0.07, 1, 2222.11, 1030.52)" style="isolation: isolate;font-size: 21.10279083251953px;fill: #1e1e1c;font-family: Arial-BoldMT, Arial;font-weight: 700">359</text>
      <text transform="matrix(1, 0, 0.07, 1, 2467.95, 677.75)" style="isolation: isolate;font-size: 21.10279083251953px;fill: #1e1e1c;font-family: Arial-BoldMT, Arial;font-weight: 700">372</text>
      <text transform="matrix(1, 0, 0.07, 1, 2302.65, 582.28)" style="isolation: isolate;font-size: 21.10279083251953px;fill: #1e1e1c;font-family: Arial-BoldMT, Arial;font-weight: 700">373</text>
      <text transform="matrix(1, 0, 0.07, 1, 2454.54, 524.58)" style="isolation: isolate;font-size: 21.10279083251953px;fill: #1e1e1c;font-family: Arial-BoldMT, Arial;font-weight: 700">374</text>
      <text transform="matrix(1, 0, 0.07, 1, 2273.48, 240.51)" style="isolation: isolate;font-size: 21.10279083251953px;fill: #1e1e1c;font-family: Arial-BoldMT, Arial;font-weight: 700">375a</text>
      <text transform="matrix(1, 0, 0.07, 1, 2428.57, 239.88)" style="isolation: isolate;font-size: 21.10279083251953px;fill: #1e1e1c;font-family: Arial-BoldMT, Arial;font-weight: 700">375б</text>
      <text transform="matrix(1, 0, 0.07, 1, 2418.32, 34.15)" style="isolation: isolate;font-size: 21.10279083251953px;fill: #1e1e1c;font-family: Arial-BoldMT, Arial;font-weight: 700">376</text>
      <text transform="matrix(1, 0, 0.07, 1, 2469.47, 1029.55)" style="isolation: isolate;font-size: 21.10279083251953px;fill: #1e1e1c;font-family: Arial-BoldMT, Arial;font-weight: 700">365</text>
      <text transform="matrix(1, 0, 0.07, 1, 2476.83, 797.38)" style="isolation: isolate;font-size: 21.10279083251953px;fill: #1e1e1c;font-family: Arial-BoldMT, Arial;font-weight: 700">367</text>
    </g>
    <g id="Иконки-2" data-name="Иконки">
      <g id="Туалет">
        <path d="M2409.86,928.12a5.32,5.32,0,0,1-5.22-4.88,4.49,4.49,0,0,1,4.08-4.87,3.54,3.54,0,0,1,.46,0,5.32,5.32,0,0,1,5.22,4.89,4.5,4.5,0,0,1-4.1,4.87Z" transform="translate(-76.35 -49.37)" style="fill: #010202"/>
        <path d="M2411.11,946a1.09,1.09,0,0,1-1-.63l-6.27-13.84a1,1,0,0,1,0-.92.93.93,0,0,1,.79-.43h10.61a1,1,0,0,1,.84.43,1,1,0,0,1,.18.92L2412,945.39A.91.91,0,0,1,2411.11,946Z" transform="translate(-76.35 -49.37)" style="fill: #010202"/>
        <path d="M2430.83,928.12a5.32,5.32,0,0,1-5.22-4.88,4.51,4.51,0,0,1,4.14-4.84h.4a5.32,5.32,0,0,1,5.22,4.89,4.49,4.49,0,0,1-4.14,4.83Z" transform="translate(-76.35 -49.37)" style="fill: #010202"/>
        <path d="M2437.39,946h-10.61a1.1,1.1,0,0,1-.85-.42,1,1,0,0,1-.17-.92l4.34-13.84a.9.9,0,0,1,.88-.64,1.08,1.08,0,0,1,1,.64l6.27,13.84a1,1,0,0,1,0,.92A.91.91,0,0,1,2437.39,946Z" transform="translate(-76.35 -49.37)" style="fill: #010202"/>
        <path d="M2421.6,946a1.07,1.07,0,0,1-1.06-1l-1.8-25.61a.93.93,0,0,1,.84-1h.08a1.08,1.08,0,0,1,1.06,1l1.8,25.66a.9.9,0,0,1-.87,1Z" transform="translate(-76.35 -49.37)" style="fill: #010202"/>
      </g>
      <g>
        <path d="M2586.73,942.1h-5.6a.43.43,0,0,0-.43.43v0l.26,3.73a.42.42,0,0,1-.38.47h-6.12a.44.44,0,0,0-.44.44v0l.27,3.73a.43.43,0,0,1-.39.46h-5.65a.43.43,0,0,0-.43.43v0l.26,3.73a.42.42,0,0,1-.38.47h-5.19a.87.87,0,0,0-.87.87V957l.2,2.8a1,1,0,0,0,1,.94h25.21a.86.86,0,0,0,.87-.86.25.25,0,0,0,0-.08L2587.74,943A1,1,0,0,0,2586.73,942.1Z" transform="translate(-76.35 -49.37)" style="fill: #010202"/>
        <path d="M2587.66,935.86h0a.39.39,0,0,0-.11-.15l-2.5-2.32a.48.48,0,0,0-.65,0,.46.46,0,0,0,0,.65l1.64,1.54h-8.67a.86.86,0,0,0-.87.85v.08l.26,3.74h-5.6a.86.86,0,0,0-.87.85v.08l.26,3.73h-5.5a.86.86,0,0,0-.87.85v.09l.19,2.8h-3.32a.43.43,0,0,0-.44.42v0a.51.51,0,0,0,.5.47h3.27a.89.89,0,0,0,.88-.87.13.13,0,0,0,0-.06l-.2-2.8h5.6a.86.86,0,0,0,.88-.85.28.28,0,0,0,0-.09l-.26-3.73h5.6a.86.86,0,0,0,.87-.84.28.28,0,0,0,0-.09l-.26-3.74h8.68l-1.43,1.54a.46.46,0,0,0-.1.45.55.55,0,0,0,.36.34.45.45,0,0,0,.44-.13l2.17-2.33A.44.44,0,0,0,2587.66,935.86Z" transform="translate(-76.35 -49.37)" style="fill: #010202"/>
      </g>
      <g>
        <path d="M2401.79,823.82l1.66,23.77h8l-1.74-24.82h-7A1,1,0,0,0,2401.79,823.82Z" transform="translate(-76.35 -49.37)" style="fill: #010202"/>
        <path d="M2421.59,847.59l-1.66-23.77a1.14,1.14,0,0,0-1.13-1h-7l1.74,24.82Z" transform="translate(-76.35 -49.37)" style="fill: #010202"/>
        <path d="M2424.84,811.59h-29.67a2.9,2.9,0,0,0-3,2.85c0,.1,0,.21,0,.31l2.07,29.64a3.45,3.45,0,0,0,3.39,3.16h3.65l-1.66-23.77a2.92,2.92,0,0,1,2.67-3.15h16.27a3.45,3.45,0,0,1,3.38,3.16l1.66,23.77h3.66a2.91,2.91,0,0,0,2.95-2.89,2.44,2.44,0,0,0,0-.27l-2.07-29.68A3.46,3.46,0,0,0,2424.84,811.59Zm-12.12,6.68h-4.5a1.15,1.15,0,0,1-1.13-1,1,1,0,0,1,.94-1.06h4.56a1.13,1.13,0,0,1,1.12,1.06A1,1,0,0,1,2412.72,818.27Z" transform="translate(-76.35 -49.37)" style="fill: #010202"/>
      </g>
      <g>
        <path d="M2367.85,76.21h-5.6a.43.43,0,0,0-.43.43v0l.23,3.71a.42.42,0,0,1-.38.47h-6.12a.43.43,0,0,0-.44.42v0l.27,3.74a.44.44,0,0,1-.42.46h-5.62a.43.43,0,0,0-.43.43v0l.26,3.73a.42.42,0,0,1-.38.47h-5.19a.87.87,0,0,0-.87.87v.06l.2,2.8a1,1,0,0,0,1,.93h25.2A.86.86,0,0,0,2370,94a.28.28,0,0,0,0-.09l-1.17-16.8A1,1,0,0,0,2367.85,76.21Z" transform="translate(-76.35 -49.37)" style="fill: #010202"/>
        <path d="M2368.78,70h0a.57.57,0,0,0-.11-.16l-2.5-2.33a.44.44,0,0,0-.63,0,.46.46,0,0,0,0,.64l0,0,1.64,1.54h-8.67a.86.86,0,0,0-.87.85v.08l.26,3.73h-5.6a.87.87,0,0,0-.87.87v.07l.27,3.73h-5.6a.86.86,0,0,0-.87.85v.08l.19,2.8h-3.26a.44.44,0,0,0-.44.44v0a.51.51,0,0,0,.5.47h3.27a.88.88,0,0,0,.88-.87.2.2,0,0,0,0-.07l-.2-2.8h5.6a.86.86,0,0,0,.88-.85.25.25,0,0,0,0-.08l-.26-3.73h5.6a.86.86,0,0,0,.87-.86.25.25,0,0,0,0-.08l-.26-3.73h8.68l-1.43,1.54a.46.46,0,0,0-.1.45.54.54,0,0,0,.36.33.42.42,0,0,0,.44-.12l2.17-2.34A.42.42,0,0,0,2368.78,70Z" transform="translate(-76.35 -49.37)" style="fill: #010202"/>
      </g>
    </g>
  </g>
  <g>
    <g id="Фундамент-3" data-name="Фундамент">
      <g id="Проход_к_актовому" data-name="Проход к актовому">
        <g>
          <polygon points="1685.93 864.6 1684.68 865.9 949.06 865.9 950.31 864.6 1685.93 864.6" style="fill: #818a61"/>
          <polygon points="950.31 864.6 949.06 865.9 941.41 755.53 942.66 754.24 950.31 864.6" style="fill: #818a61"/>
          <polygon points="1678.27 754.24 1685.93 864.6 950.31 864.6 942.66 754.24 1678.27 754.24" style="fill: #cfdb98"/>
        </g>
      </g>
      <g id="Холл">
        <g>
          <polygon points="1752.29 1093.17 1751.04 1094.46 917.95 1094.46 919.2 1093.17 1752.29 1093.17" style="fill: #818a61"/>
          <polygon points="919.2 1093.17 917.95 1094.46 899.68 831.02 900.93 829.72 919.2 1093.17" style="fill: #818a61"/>
          <polygon points="1734.02 829.72 1752.29 1093.17 919.2 1093.17 900.93 829.72 1734.02 829.72" style="fill: #cfdb98"/>
        </g>
      </g>
      <g id="Выступ">
        <g>
          <polygon points="1574.3 1164.17 1573.05 1165.46 1112.4 1165.46 1113.65 1164.17 1574.3 1164.17" style="fill: #818a61"/>
          <polygon points="1113.65 1164.17 1112.4 1165.46 1105.52 1066.26 1106.77 1064.97 1113.65 1164.17" style="fill: #818a61"/>
          <polygon points="1567.42 1064.97 1574.3 1164.17 1113.65 1164.17 1106.77 1064.97 1567.42 1064.97" style="fill: #cfdb98"/>
        </g>
      </g>
      <g id="Заплатка">
        <polygon points="1133.84 1036.11 1137.79 1093.17 1084.35 1093.17 1080.4 1036.11 1133.84 1036.11" style="fill: #cfdb98"/>
      </g>
    </g>
    <g id="Аудитории-3" data-name="Аудитории">
      <g id="MLOC-rooms-B">
        <g id="room-351">
          <g>
            <polygon points="1735.23 928.78 1728.98 935.25 1687.79 935.25 1694.04 928.78 1735.23 928.78" style="fill: #7a7a75"/>
            <polygon points="1694.04 928.78 1687.79 935.25 1681.43 843.46 1687.68 836.99 1694.04 928.78" style="fill: #7a7a75"/>
            <polygon points="1728.86 836.99 1735.23 928.78 1694.04 928.78 1687.68 836.99 1728.86 836.99" style="fill: #bcb9b2"/>
          </g>
        </g>
        <g id="room-350">
          <g>
            <polygon points="1745.87 1071.77 1739.62 1078.24 1560.87 1078.24 1567.12 1071.77 1745.87 1071.77" style="fill: #7a7a75"/>
            <polygon points="1567.12 1071.77 1560.87 1078.24 1554.5 986.43 1560.75 979.96 1567.12 1071.77" style="fill: #7a7a75"/>
            <polygon points="1739.51 979.96 1745.87 1071.77 1567.12 1071.77 1560.75 979.96 1739.51 979.96" style="fill: #bcb9b2"/>
          </g>
        </g>
        <g id="room-345">
          <g>
            <polygon points="1549.59 1145.28 1543.34 1151.75 1417.77 1151.75 1424.02 1145.28 1549.59 1145.28" style="fill: #7a7a75"/>
            <polygon points="1424.02 1145.28 1417.77 1151.75 1406.39 987.61 1412.64 981.14 1424.02 1145.28" style="fill: #7a7a75"/>
            <polygon points="1538.21 981.14 1549.59 1145.28 1424.02 1145.28 1412.64 981.14 1538.21 981.14" style="fill: #bcb9b2"/>
          </g>
        </g>
        <g id="room-344">
          <g>
            <polygon points="1404.92 1145.28 1398.67 1151.75 1273.1 1151.75 1279.35 1145.28 1404.92 1145.28" style="fill: #7a7a75"/>
            <polygon points="1279.35 1145.28 1273.1 1151.75 1261.72 987.61 1267.97 981.14 1279.35 1145.28" style="fill: #7a7a75"/>
            <polygon points="1393.53 981.14 1404.92 1145.28 1279.35 1145.28 1267.97 981.14 1393.53 981.14" style="fill: #bcb9b2"/>
          </g>
        </g>
        <g id="room-343">
          <g>
            <polygon points="1260.21 1145.29 1253.96 1151.76 1128.39 1151.76 1134.64 1145.29 1260.21 1145.29" style="fill: #7a7a75"/>
            <polygon points="1134.64 1145.29 1128.39 1151.76 1117.08 988.64 1123.33 982.17 1134.64 1145.29" style="fill: #7a7a75"/>
            <polygon points="1248.9 982.17 1260.21 1145.29 1134.64 1145.29 1123.33 982.17 1248.9 982.17" style="fill: #bcb9b2"/>
          </g>
        </g>
        <g id="room-338">
          <g>
            <polygon points="1112.14 1072.76 1105.89 1079.23 927.14 1079.23 933.39 1072.76 1112.14 1072.76" style="fill: #7a7a75"/>
            <polygon points="933.39 1072.76 927.14 1079.23 920.76 987.23 927.01 980.76 933.39 1072.76" style="fill: #7a7a75"/>
            <polygon points="1105.75 980.76 1112.14 1072.76 933.39 1072.76 927.01 980.76 1105.75 980.76" style="fill: #bcb9b2"/>
          </g>
        </g>
        <g id="room-337">
          <g>
            <polygon points="962.8 929.45 956.55 935.92 915.35 935.92 921.6 929.45 962.8 929.45" style="fill: #7a7a75"/>
            <polygon points="921.6 929.45 915.35 935.92 908.98 844.12 915.23 837.65 921.6 929.45" style="fill: #7a7a75"/>
            <polygon points="956.43 837.65 962.8 929.45 921.6 929.45 915.23 837.65 956.43 837.65" style="fill: #bcb9b2"/>
          </g>
        </g>
        <g id="elevator-347">
          <g>
            <polygon points="1683.92 928.78 1677.67 935.25 1588.58 935.25 1594.83 928.78 1683.92 928.78" style="fill: #3a702e"/>
            <polygon points="1594.83 928.78 1588.58 935.25 1582.22 843.46 1588.47 836.99 1594.83 928.78" style="fill: #3a702e"/>
            <polygon points="1677.56 836.99 1683.92 928.78 1594.83 928.78 1588.47 836.99 1677.56 836.99" style="fill: #5cad31"/>
          </g>
        </g>
        <g id="elevator-339">
          <g>
            <polygon points="1063.59 929.52 1057.34 935.99 968.25 935.99 974.5 929.52 1063.59 929.52" style="fill: #3a702e"/>
            <polygon points="974.5 929.52 968.25 935.99 961.83 843.47 968.08 837 974.5 929.52" style="fill: #3a702e"/>
            <polygon points="1057.17 837 1063.59 929.52 974.5 929.52 968.08 837 1057.17 837" style="fill: #5cad31"/>
          </g>
        </g>
        <g id="stairs-346">
          <g>
            <polygon points="1675.17 822.18 1668.92 828.65 1543.69 828.65 1549.94 822.18 1675.17 822.18" style="fill: #955f21"/>
            <polygon points="1549.94 822.18 1543.69 828.65 1539.38 766.44 1545.63 759.96 1549.94 822.18" style="fill: #955f21"/>
            <polygon points="1670.85 759.96 1675.17 822.18 1549.94 822.18 1545.63 759.96 1670.85 759.96" style="fill: #ed9337"/>
          </g>
        </g>
        <g id="stairs-341">
          <g>
            <polygon points="1088.13 822.18 1081.88 828.65 961.32 828.65 967.57 822.18 1088.13 822.18" style="fill: #955f21"/>
            <polygon points="967.57 822.18 961.32 828.65 957 766.44 963.25 759.96 967.57 822.18" style="fill: #955f21"/>
            <polygon points="1083.81 759.96 1088.13 822.18 967.57 822.18 963.25 759.96 1083.81 759.96" style="fill: #ed9337"/>
          </g>
        </g>
        <g id="room-338-2">
          <g>
            <polygon points="1309.42 812.55 1303.17 819.97 1098.21 819.97 1104.46 812.55 1309.42 812.55" style="fill: #7a7a75"/>
            <polygon points="1104.46 812.55 1098.21 819.97 1094.49 758.39 1100.74 750.97 1104.46 812.55" style="fill: #7a7a75"/>
            <polygon points="1305.69 750.97 1309.42 812.55 1104.46 812.55 1100.74 750.97 1305.69 750.97" style="fill: #bcb9b2"/>
          </g>
        </g>
        <g id="room-338-3">
          <g>
            <polygon points="1528.24 812.03 1521.99 819.97 1315.34 819.97 1321.59 812.03 1528.24 812.03" style="fill: #7a7a75"/>
            <polygon points="1321.59 812.03 1315.34 819.97 1311.61 754.09 1317.86 746.15 1321.59 812.03" style="fill: #7a7a75"/>
            <polygon points="1524.51 746.15 1528.24 812.03 1321.59 812.03 1317.86 746.15 1524.51 746.15" style="fill: #bcb9b2"/>
          </g>
        </g>
      </g>
    </g>
    <g id="Стены-2" data-name="Стены">
      <g>
        <polygon points="1531.13 823.45 1524.88 829.92 1098.91 829.92 1105.16 823.45 1531.13 823.45" style="fill: #7a7a75"/>
        <polygon points="1105.16 823.45 1098.91 829.92 1098.78 827.99 1105.03 821.51 1105.16 823.45" style="fill: #7a7a75"/>
        <polygon points="1530.99 821.51 1531.13 823.45 1105.16 823.45 1105.03 821.51 1530.99 821.51" style="fill: #bcb9b2"/>
      </g>
    </g>
    <g id="Текст">
      <text transform="matrix(1, 0, 0.07, 1, 1000.17, 1030.15)" style="isolation: isolate;font-size: 21.10279083251953px;fill: #1e1e1c;font-family: Arial-BoldMT, Arial;font-weight: 700">338</text>
      <text transform="matrix(1, 0, 0.07, 1, 1632.85, 1030.15)" style="isolation: isolate;font-size: 21.10279083251953px;fill: #1e1e1c;font-family: Arial-BoldMT, Arial;font-weight: 700">350</text>
      <g>
        <path d="M1082.32,926.8l1.67,23.77h8l-1.73-24.82h-7A1,1,0,0,0,1082.32,926.8Z" transform="translate(-76.35 -49.37)" style="fill: #010202"/>
        <path d="M1102.13,950.56l-1.68-23.76a1.14,1.14,0,0,0-1.12-1h-7l1.73,24.82Z" transform="translate(-76.35 -49.37)" style="fill: #010202"/>
        <path d="M1105.37,914.56H1075.7a2.93,2.93,0,0,0-3,2.89,2.35,2.35,0,0,0,0,.27l2.07,29.67a3.47,3.47,0,0,0,3.39,3.17h3.66l-1.67-23.76a2.93,2.93,0,0,1,2.67-3.15h16.28a3.46,3.46,0,0,1,3.38,3.16l1.67,23.77h3.65a2.9,2.9,0,0,0,3-2.86c0-.1,0-.2,0-.31l-2.07-29.67A3.45,3.45,0,0,0,1105.37,914.56Zm-12.11,6.68h-4.5a1.14,1.14,0,0,1-1.13-1.06,1,1,0,0,1,1-1h4.5a1.15,1.15,0,0,1,1.13,1,1,1,0,0,1-.94,1.06Z" transform="translate(-76.35 -49.37)" style="fill: #010202"/>
      </g>
      <g>
        <path d="M1703.35,926.8l1.66,23.77h8l-1.73-24.82h-7A1,1,0,0,0,1703.35,926.8Z" transform="translate(-76.35 -49.37)" style="fill: #010202"/>
        <path d="M1723.15,950.56l-1.7-23.76a1.16,1.16,0,0,0-1.13-1h-7l1.73,24.82Z" transform="translate(-76.35 -49.37)" style="fill: #010202"/>
        <path d="M1726.45,914.56h-29.72a2.92,2.92,0,0,0-3,2.88,2.53,2.53,0,0,0,0,.28l2.08,29.67a3.46,3.46,0,0,0,3.38,3.17h3.66l-1.66-23.76a2.93,2.93,0,0,1,2.67-3.15h16.27a3.47,3.47,0,0,1,3.39,3.16l1.66,23.77h3.65a2.91,2.91,0,0,0,3-2.87c0-.1,0-.2,0-.3l-2.08-29.67A3.46,3.46,0,0,0,1726.45,914.56Zm-12.12,6.68h-4.5a1.14,1.14,0,0,1-1.13-1.06,1,1,0,0,1,1-1h4.5a1.15,1.15,0,0,1,1.13,1,1,1,0,0,1-.93,1.06h-.07Z" transform="translate(-76.35 -49.37)" style="fill: #010202"/>
      </g>
      <g>
        <path d="M1114.12,834.48h-5.6a.43.43,0,0,0-.43.43v0l.26,3.73a.42.42,0,0,1-.38.46h-6.12a.43.43,0,0,0-.43.43v0l.26,3.73a.43.43,0,0,1-.39.47s0,0,0,0h-5.6a.43.43,0,0,0-.43.43v0l.26,3.73a.43.43,0,0,1-.39.47h-5.18a.86.86,0,0,0-.86.84v.09l.19,2.8a1,1,0,0,0,1,.93h25.22a.85.85,0,0,0,.87-.84.27.27,0,0,0,0-.09l-1.18-16.8A1,1,0,0,0,1114.12,834.48Z" transform="translate(-76.35 -49.37)" style="fill: #010202"/>
        <path d="M1115.05,828.23h0l-.11-.15-2.49-2.28a.48.48,0,0,0-.65,0,.47.47,0,0,0,0,.66l1.65,1.49h-8.67a.87.87,0,0,0-.87.85v.08l.26,3.73h-5.6a.87.87,0,0,0-.86.86v.08l.26,3.73h-5.6a.87.87,0,0,0-.87.85v.08l.2,2.8h-3.25a.43.43,0,0,0-.43.43v0a.48.48,0,0,0,.49.46h3.27a.85.85,0,0,0,.88-.82.41.41,0,0,0,0-.11l-.2-2.8h5.6a.85.85,0,0,0,.87-.84.27.27,0,0,0,0-.09l-.26-3.73h5.6a.86.86,0,0,0,.87-.86v-.08l-.26-3.73h8.67l-1.43,1.54a.47.47,0,0,0-.1.45.5.5,0,0,0,.36.33.42.42,0,0,0,.45-.12l2.17-2.34A.44.44,0,0,0,1115.05,828.23Z" transform="translate(-76.35 -49.37)" style="fill: #010202"/>
      </g>
      <g>
        <path d="M1699,834h-5.56a.44.44,0,0,0-.44.44v0l.26,3.73a.43.43,0,0,1-.39.47h-6.11a.43.43,0,0,0-.43.43v0l.26,3.73a.42.42,0,0,1-.38.46h-5.65a.44.44,0,0,0-.44.44v0l.27,3.73a.43.43,0,0,1-.41.47h-5.16a.87.87,0,0,0-.87.85V849l.2,2.8a1,1,0,0,0,1,.94h25.2a.86.86,0,0,0,.88-.84s0-.06,0-.1L1700.06,835A1,1,0,0,0,1699,834Z" transform="translate(-76.35 -49.37)" style="fill: #010202"/>
        <path d="M1699.93,827.8h0a.39.39,0,0,0-.11-.15l-2.49-2.34a.49.49,0,0,0-.66,0,.48.48,0,0,0,0,.65l1.65,1.54h-8.68a.86.86,0,0,0-.86.84v.09l.26,3.74h-5.59a.85.85,0,0,0-.87.83v.1l.26,3.73h-5.6a.88.88,0,0,0-.79.95v0l.2,2.8h-3.27a.43.43,0,0,0-.43.41v0a.5.5,0,0,0,.5.47h3.26a.85.85,0,0,0,.87-.84.27.27,0,0,0,0-.09l-.19-2.8h5.6a.86.86,0,0,0,.87-.85s0-.06,0-.09l-.26-3.73h5.6a.85.85,0,0,0,.87-.84.27.27,0,0,0,0-.09l-.26-3.74h8.65L1697,830a.44.44,0,0,0-.09.45.5.5,0,0,0,.35.34.43.43,0,0,0,.45-.13l2.17-2.33A.44.44,0,0,0,1699.93,827.8Z" transform="translate(-76.35 -49.37)" style="fill: #010202"/>
      </g>
      <text transform="matrix(1, 0, 0.07, 1, 926.34, 888.78)" style="isolation: isolate;font-size: 15.1282377243042px;fill: #1e1e1c;font-family: Arial-BoldMT, Arial;font-weight: 700">337</text>
      <text transform="matrix(1, 0, 0.07, 1, 1700.5, 886.78)" style="isolation: isolate;font-size: 15.1282377243042px;fill: #1e1e1c;font-family: Arial-BoldMT, Arial;font-weight: 700">351</text>
      <text transform="matrix(1.16, 0, 0.08, 1, 1173.29, 1031.25)" style="isolation: isolate;font-size: 18.19563102722168px;fill: #1e1e1c;font-family: Arial-BoldMT, Arial;font-weight: 700">343</text>
      <text transform="matrix(1, 0, 0.07, 1, 1313.67, 1029.1)" style="isolation: isolate;font-size: 21.10279083251953px;fill: #1e1e1c;font-family: Arial-BoldMT, Arial;font-weight: 700">344</text>
      <text transform="matrix(1, 0, 0.07, 1, 1458.26, 1029.1)" style="isolation: isolate;font-size: 21.10279083251953px;fill: #1e1e1c;font-family: Arial-BoldMT, Arial;font-weight: 700">345</text>
    </g>
  </g>
  <g>
    <g id="Фундамент-4" data-name="Фундамент">
      <g id="Горизонтальный">
        <g>
          <polygon points="924.87 1093.21 923.62 1094.51 261.46 1094.51 262.71 1093.21 924.87 1093.21" style="fill: #818a61"/>
          <polygon points="262.71 1093.21 261.46 1094.51 243.18 830.96 244.43 829.67 262.71 1093.21" style="fill: #818a61"/>
          <polygon points="906.59 829.67 924.87 1093.21 262.71 1093.21 244.43 829.67 906.59 829.67" style="fill: #cfdb98"/>
        </g>
      </g>
      <g id="Вертикальный">
        <g>
          <polygon points="350.89 1035.64 349.64 1036.94 66.56 1036.94 67.81 1035.64 350.89 1035.64" style="fill: #818a61"/>
          <polygon points="67.81 1035.64 66.56 1036.94 0 77.13 1.25 75.84 67.81 1035.64" style="fill: #818a61"/>
          <polygon points="284.33 75.84 350.89 1035.64 67.81 1035.64 1.25 75.84 284.33 75.84" style="fill: #cfdb98"/>
        </g>
      </g>
      <g id="Под_30-2" data-name="Под 30">
        <g>
          <polygon points="286.06 1117.6 285.56 1118.12 25.16 1118.12 25.66 1117.6 286.06 1117.6" style="fill: #818a61"/>
          <polygon points="25.66 1117.6 25.16 1118.12 15.31 976.09 15.81 975.57 25.66 1117.6" style="fill: #818a61"/>
          <polygon points="276.21 975.57 286.06 1117.6 25.66 1117.6 15.81 975.57 276.21 975.57" style="fill: #cfdb98"/>
        </g>
      </g>
      <g id="Заплатка-2" data-name="Заплатка">
        <polygon points="364.6 978.61 370 1056.39 253.78 1056.39 248.39 978.61 364.6 978.61" style="fill: #cfdb98"/>
      </g>
    </g>
    <g id="Аудитории-4" data-name="Аудитории">
      <g id="MLOC-rooms-A-1-row">
        <g id="room-336">
          <g>
            <polygon points="919.63 1072.71 913.38 1079.18 759.04 1079.18 765.29 1072.71 919.63 1072.71" style="fill: #7a7a75"/>
            <polygon points="765.29 1072.71 759.04 1079.18 752.67 987.37 758.92 980.9 765.29 1072.71" style="fill: #7a7a75"/>
            <polygon points="913.26 980.9 919.63 1072.71 765.29 1072.71 758.92 980.9 913.26 980.9" style="fill: #bcb9b2"/>
          </g>
        </g>
        <g id="room-334">
          <g>
            <polygon points="753.2 1072.71 746.95 1079.18 693.81 1079.18 700.06 1072.71 753.2 1072.71" style="fill: #7a7a75"/>
            <polygon points="700.06 1072.71 693.81 1079.18 687.45 987.37 693.7 980.9 700.06 1072.71" style="fill: #7a7a75"/>
            <polygon points="746.83 980.9 753.2 1072.71 700.06 1072.71 693.7 980.9 746.83 980.9" style="fill: #bcb9b2"/>
          </g>
        </g>
        <g id="room-332">
          <g>
            <polygon points="687.95 1072.71 681.7 1079.18 469.29 1079.18 475.54 1072.71 687.95 1072.71" style="fill: #7a7a75"/>
            <polygon points="475.54 1072.71 469.29 1079.18 462.92 987.37 469.17 980.9 475.54 1072.71" style="fill: #7a7a75"/>
            <polygon points="681.58 980.9 687.95 1072.71 475.54 1072.71 469.17 980.9 681.58 980.9" style="fill: #bcb9b2"/>
          </g>
        </g>
        <g id="room-329">
          <g>
            <polygon points="462.64 1072.71 456.39 1079.18 359.3 1079.18 365.55 1072.71 462.64 1072.71" style="fill: #7a7a75"/>
            <polygon points="365.55 1072.71 359.3 1079.18 352.93 987.37 359.18 980.9 365.55 1072.71" style="fill: #7a7a75"/>
            <polygon points="456.27 980.9 462.64 1072.71 365.55 1072.71 359.18 980.9 456.27 980.9" style="fill: #bcb9b2"/>
          </g>
        </g>
        <g id="room-327">
          <g>
            <polygon points="352.46 1072.71 346.21 1079.18 293.08 1079.18 299.33 1072.71 352.46 1072.71" style="fill: #7a7a75"/>
            <polygon points="299.33 1072.71 293.08 1079.18 286.72 987.37 292.97 980.9 299.33 1072.71" style="fill: #7a7a75"/>
            <polygon points="346.09 980.9 352.46 1072.71 299.33 1072.71 292.97 980.9 346.09 980.9" style="fill: #bcb9b2"/>
          </g>
        </g>
        <g id="room-und">
          <g>
            <polygon points="282.18 1097.49 275.93 1103.96 38.01 1103.96 44.26 1097.49 282.18 1097.49" style="fill: #7a7a75"/>
            <polygon points="44.26 1097.49 38.01 1103.96 29.95 987.8 36.2 981.33 44.26 1097.49" style="fill: #7a7a75"/>
            <polygon points="274.12 981.33 282.18 1097.49 44.26 1097.49 36.2 981.33 274.12 981.33" style="fill: #bcb9b2"/>
          </g>
        </g>
      </g>
      <g id="MLOC-rooms-A-2-row">
        <g id="room-335">
          <g>
            <polygon points="910.21 929.11 904.37 935.58 802.49 935.58 808.34 929.11 910.21 929.11" style="fill: #7a7a75"/>
            <polygon points="808.34 929.11 802.49 935.58 796.54 843.77 802.38 837.3 808.34 929.11" style="fill: #7a7a75"/>
            <polygon points="904.26 837.3 910.21 929.11 808.34 929.11 802.38 837.3 904.26 837.3" style="fill: #bcb9b2"/>
          </g>
        </g>
        <g id="room-333">
          <g>
            <polygon points="795.6 929.11 789.75 935.58 687.88 935.58 693.72 929.11 795.6 929.11" style="fill: #7a7a75"/>
            <polygon points="693.72 929.11 687.88 935.58 681.93 843.77 687.77 837.3 693.72 929.11" style="fill: #7a7a75"/>
            <polygon points="789.64 837.3 795.6 929.11 693.72 929.11 687.77 837.3 789.64 837.3" style="fill: #bcb9b2"/>
          </g>
        </g>
        <g id="room-331">
          <g>
            <polygon points="680.98 929.11 675.14 935.58 573.25 935.58 579.1 929.11 680.98 929.11" style="fill: #7a7a75"/>
            <polygon points="579.1 929.11 573.25 935.58 567.3 843.77 573.14 837.3 579.1 929.11" style="fill: #7a7a75"/>
            <polygon points="675.03 837.3 680.98 929.11 579.1 929.11 573.14 837.3 675.03 837.3" style="fill: #bcb9b2"/>
          </g>
        </g>
        <g id="room-330">
          <g>
            <polygon points="566.37 929.42 560.52 935.89 458.64 935.89 464.48 929.42 566.37 929.42" style="fill: #7a7a75"/>
            <polygon points="464.48 929.42 458.64 935.89 452.69 844.08 458.53 837.61 464.48 929.42" style="fill: #7a7a75"/>
            <polygon points="560.41 837.61 566.37 929.42 464.48 929.42 458.53 837.61 560.41 837.61" style="fill: #bcb9b2"/>
          </g>
        </g>
        <g id="room-328">
          <g>
            <polygon points="451.75 929.45 445.91 935.92 344.02 935.92 349.87 929.45 451.75 929.45" style="fill: #7a7a75"/>
            <polygon points="349.87 929.45 344.02 935.92 338.07 844.11 343.91 837.64 349.87 929.45" style="fill: #7a7a75"/>
            <polygon points="445.8 837.64 451.75 929.45 349.87 929.45 343.91 837.64 445.8 837.64" style="fill: #bcb9b2"/>
          </g>
        </g>
        <g id="toilet-323">
          <g>
            <polygon points="336.25 929.29 330 935.76 235.42 935.76 241.67 929.29 336.25 929.29" style="fill: #3b7b90"/>
            <polygon points="241.67 929.29 235.42 935.76 229.05 843.95 235.3 837.48 241.67 929.29" style="fill: #3b7b90"/>
            <polygon points="329.88 837.48 336.25 929.29 241.67 929.29 235.3 837.48 329.88 837.48" style="fill: #5abfe6"/>
          </g>
        </g>
      </g>
      <g id="MLOC-rooms-A-2-col">
        <g id="room-und-2">
          <g>
            <polygon points="299.55 426.1 293.3 432.58 198.72 432.58 204.97 426.1 299.55 426.1" style="fill: #7a7a75"/>
            <polygon points="204.97 426.1 198.72 432.58 195 378.97 201.25 372.5 204.97 426.1" style="fill: #7a7a75"/>
            <polygon points="295.84 372.5 299.55 426.1 204.97 426.1 201.25 372.5 295.84 372.5" style="fill: #bcb9b2"/>
          </g>
        </g>
        <g id="room-317">
          <g>
            <polygon points="320.31 724.15 314.06 730.62 219.48 730.62 225.73 724.15 320.31 724.15" style="fill: #7a7a75"/>
            <polygon points="225.73 724.15 219.48 730.62 209.13 581.35 215.38 574.88 225.73 724.15" style="fill: #7a7a75"/>
            <polygon points="309.96 574.88 320.31 724.15 225.73 724.15 215.38 574.88 309.96 574.88" style="fill: #bcb9b2"/>
          </g>
        </g>
        <g id="room-314">
          <g>
            <polygon points="308.85 559.91 302.6 566.38 208.02 566.38 214.27 559.91 308.85 559.91" style="fill: #7a7a75"/>
            <polygon points="214.27 559.91 208.02 566.38 204.3 512.77 210.55 506.3 214.27 559.91" style="fill: #7a7a75"/>
            <polygon points="305.13 506.3 308.85 559.91 214.27 559.91 210.55 506.3 305.13 506.3" style="fill: #bcb9b2"/>
          </g>
        </g>
        <g id="room-312">
          <g>
            <polygon points="303.7 493.01 297.45 499.48 202.87 499.48 209.12 493.01 303.7 493.01" style="fill: #7a7a75"/>
            <polygon points="209.12 493.01 202.87 499.48 199.15 445.87 205.4 439.4 209.12 493.01" style="fill: #7a7a75"/>
            <polygon points="299.98 439.4 303.7 493.01 209.12 493.01 205.4 439.4 299.98 439.4" style="fill: #bcb9b2"/>
          </g>
        </g>
        <g id="room-308">
          <g>
            <polygon points="294.4 359.21 288.15 365.68 193.56 365.68 199.81 359.21 294.4 359.21" style="fill: #7a7a75"/>
            <polygon points="199.81 359.21 193.56 365.68 189.85 312.08 196.1 305.6 199.81 359.21" style="fill: #7a7a75"/>
            <polygon points="290.68 305.6 294.4 359.21 199.81 359.21 196.1 305.6 290.68 305.6" style="fill: #bcb9b2"/>
          </g>
        </g>
        <g id="room-306">
          <g>
            <polygon points="289.04 292.42 282.79 298.89 188.2 298.89 194.45 292.42 289.04 292.42" style="fill: #7a7a75"/>
            <polygon points="194.45 292.42 188.2 298.89 184.91 251.37 191.16 244.9 194.45 292.42" style="fill: #7a7a75"/>
            <polygon points="285.74 244.9 289.04 292.42 194.45 292.42 191.16 244.9 285.74 244.9" style="fill: #bcb9b2"/>
          </g>
        </g>
        <g id="room-304">
          <g>
            <polygon points="284.45 232.04 278.2 238.51 183.62 238.51 189.87 232.04 284.45 232.04" style="fill: #7a7a75"/>
            <polygon points="189.87 232.04 183.62 238.51 181.19 203.52 187.44 197.05 189.87 232.04" style="fill: #7a7a75"/>
            <polygon points="282.03 197.05 284.45 232.04 189.87 232.04 187.44 197.05 282.03 197.05" style="fill: #bcb9b2"/>
          </g>
        </g>
        <g id="room-303">
          <g>
            <polygon points="281.53 183.29 275.28 189.77 180.69 189.77 186.94 183.29 281.53 183.29" style="fill: #7a7a75"/>
            <polygon points="186.94 183.29 180.69 189.77 173.83 90.8 180.08 84.33 186.94 183.29" style="fill: #7a7a75"/>
            <polygon points="274.66 84.33 281.53 183.29 186.94 183.29 180.08 84.33 274.66 84.33" style="fill: #bcb9b2"/>
          </g>
        </g>
        <g id="elevator-215">
          <g>
            <polygon points="328.29 822.96 322.04 829.43 227.45 829.43 233.7 822.96 328.29 822.96" style="fill: #3a702e"/>
            <polygon points="233.7 822.96 227.45 829.43 221.68 746.17 227.93 739.7 233.7 822.96" style="fill: #3a702e"/>
            <polygon points="322.51 739.7 328.29 822.96 233.7 822.96 227.93 739.7 322.51 739.7" style="fill: #5cad31"/>
          </g>
        </g>
      </g>
      <g id="MLOC-rooms-A-1-col">
        <g id="room-und-3">
          <g>
            <polygon points="178.13 969.47 171.88 975.94 77.3 975.94 83.55 969.47 178.13 969.47" style="fill: #7a7a75"/>
            <polygon points="83.55 969.47 77.3 975.94 75.17 945.3 81.42 938.83 83.55 969.47" style="fill: #7a7a75"/>
            <polygon points="176.01 938.83 178.13 969.47 83.55 969.47 81.42 938.83 176.01 938.83" style="fill: #bcb9b2"/>
          </g>
        </g>
        <g id="room-319">
          <g>
            <polygon points="168.59 822.71 162.34 829.18 67.76 829.18 74.01 822.71 168.59 822.71" style="fill: #7a7a75"/>
            <polygon points="74.01 822.71 67.76 829.18 64.02 775.17 70.27 768.7 74.01 822.71" style="fill: #7a7a75"/>
            <polygon points="164.85 768.7 168.59 822.71 74.01 822.71 70.27 768.7 164.85 768.7" style="fill: #bcb9b2"/>
          </g>
        </g>
        <g id="room-318">
          <g>
            <polygon points="163.52 757.54 157.27 764.01 62.68 764.01 68.93 757.54 163.52 757.54" style="fill: #7a7a75"/>
            <polygon points="68.93 757.54 62.68 764.01 58.94 710 65.19 703.53 68.93 757.54" style="fill: #7a7a75"/>
            <polygon points="159.77 703.53 163.52 757.54 68.93 757.54 65.19 703.53 159.77 703.53" style="fill: #bcb9b2"/>
          </g>
        </g>
        <g id="room-316">
          <g>
            <polygon points="158.44 692.38 152.19 698.85 57.6 698.85 63.85 692.38 158.44 692.38" style="fill: #7a7a75"/>
            <polygon points="63.85 692.38 57.6 698.85 53.85 644.84 60.1 638.37 63.85 692.38" style="fill: #7a7a75"/>
            <polygon points="154.69 638.37 158.44 692.38 63.85 692.38 60.1 638.37 154.69 638.37" style="fill: #bcb9b2"/>
          </g>
        </g>
        <g id="room-315">
          <g>
            <polygon points="153.36 627.21 147.11 633.68 52.52 633.68 58.77 627.21 153.36 627.21" style="fill: #7a7a75"/>
            <polygon points="58.77 627.21 52.52 633.68 48.78 579.67 55.03 573.2 58.77 627.21" style="fill: #7a7a75"/>
            <polygon points="149.61 573.2 153.36 627.21 58.77 627.21 55.03 573.2 149.61 573.2" style="fill: #bcb9b2"/>
          </g>
        </g>
        <g id="room-313">
          <g>
            <polygon points="148.4 561.98 142.15 568.45 47.56 568.45 53.81 561.98 148.4 561.98" style="fill: #7a7a75"/>
            <polygon points="53.81 561.98 47.56 568.45 43.58 511.05 49.83 504.58 53.81 561.98" style="fill: #7a7a75"/>
            <polygon points="144.42 504.58 148.4 561.98 53.81 561.98 49.83 504.58 144.42 504.58" style="fill: #bcb9b2"/>
          </g>
        </g>
        <g id="room-311">
          <g>
            <polygon points="143.32 493.3 137.07 499.78 42.49 499.78 48.74 493.3 143.32 493.3" style="fill: #7a7a75"/>
            <polygon points="48.74 493.3 42.49 499.78 38.51 442.37 44.76 435.9 48.74 493.3" style="fill: #7a7a75"/>
            <polygon points="139.34 435.9 143.32 493.3 48.74 493.3 44.76 435.9 139.34 435.9" style="fill: #bcb9b2"/>
          </g>
        </g>
        <g id="room-309">
          <g>
            <polygon points="138.25 424.63 132 431.1 37.4 431.1 43.65 424.63 138.25 424.63" style="fill: #7a7a75"/>
            <polygon points="43.65 424.63 37.4 431.1 33.42 373.69 39.67 367.22 43.65 424.63" style="fill: #7a7a75"/>
            <polygon points="134.26 367.22 138.25 424.63 43.65 424.63 39.67 367.22 134.26 367.22" style="fill: #bcb9b2"/>
          </g>
        </g>
        <g id="room-307">
          <g>
            <polygon points="133.03 356.01 126.78 362.48 32.2 362.48 38.45 356.01 133.03 356.01" style="fill: #7a7a75"/>
            <polygon points="38.45 356.01 32.2 362.48 28.48 308.87 34.73 302.4 38.45 356.01" style="fill: #7a7a75"/>
            <polygon points="129.31 302.4 133.03 356.01 38.45 356.01 34.73 302.4 129.31 302.4" style="fill: #bcb9b2"/>
          </g>
        </g>
        <g id="room-305">
          <g>
            <polygon points="129.37 290.54 123.12 297.02 28.54 297.02 34.79 290.54 129.37 290.54" style="fill: #7a7a75"/>
            <polygon points="34.79 290.54 28.54 297.02 21.98 202.42 28.23 195.95 34.79 290.54" style="fill: #7a7a75"/>
            <polygon points="122.81 195.95 129.37 290.54 34.79 290.54 28.23 195.95 122.81 195.95" style="fill: #bcb9b2"/>
          </g>
        </g>
        <g id="room-302">
          <g>
            <polygon points="122.21 184.43 115.96 190.91 21.37 190.91 27.62 184.43 122.21 184.43" style="fill: #7a7a75"/>
            <polygon points="27.62 184.43 21.37 190.91 19 156.59 25.25 150.12 27.62 184.43" style="fill: #7a7a75"/>
            <polygon points="119.83 150.12 122.21 184.43 27.62 184.43 25.25 150.12 119.83 150.12" style="fill: #bcb9b2"/>
          </g>
        </g>
        <g id="stairs-322">
          <g>
            <polygon points="175.55 929.85 169.3 936.32 74.71 936.32 80.96 929.85 175.55 929.85" style="fill: #955f21"/>
            <polygon points="80.96 929.85 74.71 936.32 70.56 876.51 76.81 870.04 80.96 929.85" style="fill: #955f21"/>
            <polygon points="171.41 870.04 175.55 929.85 80.96 929.85 76.81 870.04 171.41 870.04" style="fill: #ed9337"/>
          </g>
        </g>
        <g id="stairs-301">
          <g>
            <polygon points="118.88 137.14 112.63 143.61 18.04 143.61 24.29 137.14 118.88 137.14" style="fill: #955f21"/>
            <polygon points="24.29 137.14 18.04 143.61 14.32 90 20.57 83.53 24.29 137.14" style="fill: #955f21"/>
            <polygon points="115.16 83.53 118.88 137.14 24.29 137.14 20.57 83.53 115.16 83.53" style="fill: #ed9337"/>
          </g>
        </g>
      </g>
    </g>
    <g id="Стены-3" data-name="Стены">
      <g>
        <polygon points="169.04 85.6 162.79 92.07 121.83 92.07 128.08 85.6 169.04 85.6" style="fill: #7a7a75"/>
        <polygon points="128.08 85.6 121.83 92.07 121.69 90.09 127.94 83.62 128.08 85.6" style="fill: #7a7a75"/>
        <polygon points="168.9 83.62 169.04 85.6 128.08 85.6 127.94 83.62 168.9 83.62" style="fill: #bcb9b2"/>
      </g>
      <g>
        <polygon points="77.36 860.93 71.11 867.4 69.67 867.4 75.92 860.93 77.36 860.93" style="fill: #7a7a75"/>
        <polygon points="75.92 860.93 69.67 867.4 67.67 838.63 73.92 832.16 75.92 860.93" style="fill: #7a7a75"/>
        <polygon points="75.37 832.16 77.36 860.93 75.92 860.93 73.92 832.16 75.37 832.16" style="fill: #bcb9b2"/>
      </g>
    </g>
    <g id="Текст-2" data-name="Текст">
      <text transform="matrix(1, 0, 0.07, 1, 379.48, 886.59)" style="isolation: isolate;font-size: 21.10279083251953px;fill: #1e1e1c;font-family: Arial-BoldMT, Arial;font-weight: 700">328</text>
      <text transform="matrix(1, 0, 0.07, 1, 306.43, 1030.01)" style="isolation: isolate;font-size: 21.10279083251953px;fill: #1e1e1c;font-family: Arial-BoldMT, Arial;font-weight: 700">327</text>
      <text transform="matrix(1, 0, 0.07, 1, 391.91, 1029.11)" style="isolation: isolate;font-size: 21.10279083251953px;fill: #1e1e1c;font-family: Arial-BoldMT, Arial;font-weight: 700">329</text>
      <text transform="matrix(1, 0, 0.07, 1, 562.03, 1029.11)" style="isolation: isolate;font-size: 21.10279083251953px;fill: #1e1e1c;font-family: Arial-BoldMT, Arial;font-weight: 700">332</text>
      <text transform="matrix(1, 0, 0.07, 1, 706.14, 1029.11)" style="isolation: isolate;font-size: 21.10279083251953px;fill: #1e1e1c;font-family: Arial-BoldMT, Arial;font-weight: 700">334</text>
      <text transform="matrix(1, 0, 0.07, 1, 820.99, 1030.01)" style="isolation: isolate;font-size: 21.10279083251953px;fill: #1e1e1c;font-family: Arial-BoldMT, Arial;font-weight: 700">336</text>
      <text transform="matrix(1, 0, 0.07, 1, 494.86, 886.74)" style="isolation: isolate;font-size: 21.10279083251953px;fill: #1e1e1c;font-family: Arial-BoldMT, Arial;font-weight: 700">330</text>
      <text transform="matrix(1, 0, 0.07, 1, 608.53, 886.74)" style="isolation: isolate;font-size: 21.10279083251953px;fill: #1e1e1c;font-family: Arial-BoldMT, Arial;font-weight: 700">331</text>
      <text transform="matrix(1, 0, 0.07, 1, 725.25, 886.74)" style="isolation: isolate;font-size: 21.10279083251953px;fill: #1e1e1c;font-family: Arial-BoldMT, Arial;font-weight: 700">333</text>
      <text transform="matrix(1, 0, 0.07, 1, 842.07, 886.59)" style="isolation: isolate;font-size: 21.10279083251953px;fill: #1e1e1c;font-family: Arial-BoldMT, Arial;font-weight: 700">335</text>
      <text transform="matrix(1, 0, 0.07, 1, 100.91, 802.13)" style="isolation: isolate;font-size: 21.10279083251953px;fill: #1e1e1c;font-family: Arial-BoldMT, Arial;font-weight: 700">319</text>
      <text transform="matrix(1, 0, 0.07, 1, 91.67, 672.16)" style="isolation: isolate;font-size: 21.10279083251953px;fill: #1e1e1c;font-family: Arial-BoldMT, Arial;font-weight: 700">316</text>
      <text transform="matrix(1, 0, 0.07, 1, 83.66, 540.82)" style="isolation: isolate;font-size: 21.10279083251953px;fill: #1e1e1c;font-family: Arial-BoldMT, Arial;font-weight: 700">313</text>
      <text transform="matrix(1, 0, 0.07, 1, 72.77, 403.54)" style="isolation: isolate;font-size: 21.10279083251953px;fill: #1e1e1c;font-family: Arial-BoldMT, Arial;font-weight: 700">309</text>
      <text transform="matrix(1, 0, 0.07, 1, 67.6, 336.64)" style="isolation: isolate;font-size: 21.10279083251953px;fill: #1e1e1c;font-family: Arial-BoldMT, Arial;font-weight: 700">307</text>
      <text transform="matrix(1, 0, 0.07, 1, 61.26, 250.3)" style="isolation: isolate;font-size: 21.10279083251953px;fill: #1e1e1c;font-family: Arial-BoldMT, Arial;font-weight: 700">305</text>
      <text transform="matrix(1, 0, 0.07, 1, 213.85, 141.32)" style="isolation: isolate;font-size: 21.10279083251953px;fill: #1e1e1c;font-family: Arial-BoldMT, Arial;font-weight: 700">303</text>
      <text transform="matrix(1, 0, 0.07, 1, 222.79, 276.94)" style="isolation: isolate;font-size: 21.10279083251953px;fill: #1e1e1c;font-family: Arial-BoldMT, Arial;font-weight: 700">306</text>
      <text transform="matrix(1, 0, 0.07, 1, 237.27, 470.84)" style="isolation: isolate;font-size: 21.10279083251953px;fill: #1e1e1c;font-family: Arial-BoldMT, Arial;font-weight: 700">312</text>
      <text transform="matrix(1, 0, 0.07, 1, 251.43, 652.75)" style="isolation: isolate;font-size: 21.10279083251953px;fill: #1e1e1c;font-family: Arial-BoldMT, Arial;font-weight: 700">317</text>
      <text transform="matrix(0.96, 0, 0.07, 1, 57.4, 173.52)" style="isolation: isolate;font-size: 21.099262237548828px;fill: #1e1e1c;font-family: Arial-BoldMT, Arial;font-weight: 700">302</text>
      <g style="isolation: isolate">
        <text transform="matrix(1, 0, 0.07, 1, 78.69, 470.84)" style="isolation: isolate;font-size: 21.10279083251953px;fill: #1e1e1c;font-family: Arial-BoldMT, Arial;font-weight: 700">3</text>
        <text transform="matrix(1, 0, 0.07, 1, 90.4, 470.84)" style="isolation: isolate;font-size: 21.10279083251953px;fill: #1e1e1c;font-family: Arial-BoldMT, Arial;font-weight: 700;letter-spacing: -0.0549949912578971em">1</text>
        <text transform="matrix(1, 0, 0.07, 1, 100.94, 470.84)" style="isolation: isolate;font-size: 21.10279083251953px;fill: #1e1e1c;font-family: Arial-BoldMT, Arial;font-weight: 700">1</text>
      </g>
      <text transform="matrix(1, 0, 0.07, 1, 87.91, 607.44)" style="isolation: isolate;font-size: 21.10279083251953px;fill: #1e1e1c;font-family: Arial-BoldMT, Arial;font-weight: 700">315</text>
      <text transform="matrix(1, 0, 0.07, 1, 95.91, 737.47)" style="isolation: isolate;font-size: 21.10279083251953px;fill: #1e1e1c;font-family: Arial-BoldMT, Arial;font-weight: 700">318</text>
      <text transform="matrix(1, 0, 0.07, 1, 217.79, 222.32)" style="isolation: isolate;font-size: 21.10279083251953px;fill: #1e1e1c;font-family: Arial-BoldMT, Arial;font-weight: 700">304</text>
      <text transform="matrix(1, 0, 0.07, 1, 227.67, 339.64)" style="isolation: isolate;font-size: 21.10279083251953px;fill: #1e1e1c;font-family: Arial-BoldMT, Arial;font-weight: 700">308</text>
      <text transform="matrix(1, 0, 0.07, 1, 243.27, 540.82)" style="isolation: isolate;font-size: 21.10279083251953px;fill: #1e1e1c;font-family: Arial-BoldMT, Arial;font-weight: 700">314</text>
    </g>
    <g id="Иконки-3" data-name="Иконки">
      <g id="Туалет-2" data-name="Туалет">
        <path d="M351.57,928a5.32,5.32,0,0,1-5.22-4.88,4.51,4.51,0,0,1,4.09-4.88h.45a5.32,5.32,0,0,1,5.22,4.89A4.5,4.5,0,0,1,352,928Z" transform="translate(-76.35 -49.37)" style="fill: #010202"/>
        <path d="M352.82,945.89a1.09,1.09,0,0,1-1-.63l-6.27-13.84a1,1,0,0,1,0-.92.91.91,0,0,1,.79-.43H357a1,1,0,0,1,.84.43,1,1,0,0,1,.18.92l-4.27,13.8A.92.92,0,0,1,352.82,945.89Z" transform="translate(-76.35 -49.37)" style="fill: #010202"/>
        <path d="M372.54,928a5.32,5.32,0,0,1-5.22-4.88,4.51,4.51,0,0,1,4.09-4.88h.45a5.32,5.32,0,0,1,5.22,4.89A4.49,4.49,0,0,1,373,928Z" transform="translate(-76.35 -49.37)" style="fill: #010202"/>
        <path d="M379.1,945.89H368.49a1.12,1.12,0,0,1-.85-.42,1.05,1.05,0,0,1-.17-.92l4.34-13.84a.89.89,0,0,1,.88-.64,1.06,1.06,0,0,1,1,.64L380,944.55a1,1,0,0,1,0,.92A.93.93,0,0,1,379.1,945.89Z" transform="translate(-76.35 -49.37)" style="fill: #010202"/>
        <path d="M363.31,945.89a1.08,1.08,0,0,1-1.06-1l-1.8-25.67a.92.92,0,0,1,.84-1h.08a1.08,1.08,0,0,1,1.06,1l1.8,25.66a.91.91,0,0,1-.81,1Z" transform="translate(-76.35 -49.37)" style="fill: #010202"/>
      </g>
      <g>
        <path d="M213.74,943.92h-5.6a.43.43,0,0,0-.43.43v0l.26,3.73a.44.44,0,0,1-.39.47h-6.11a.42.42,0,0,0-.44.42v0l.27,3.74a.44.44,0,0,1-.42.46h-5.57a.43.43,0,0,0-.43.43v0l.26,3.73a.44.44,0,0,1-.39.47h-5.18a.86.86,0,0,0-.87.87v.06l.2,2.8a1,1,0,0,0,1,.93h25.2a.86.86,0,0,0,.86-.84v-.09l-1.17-16.8A1,1,0,0,0,213.74,943.92Z" transform="translate(-76.35 -49.37)" style="fill: #010202"/>
        <path d="M214.67,937.67h0a.91.91,0,0,0-.11-.16l-2.5-2.33a.46.46,0,0,0-.64,0,.44.44,0,0,0,0,.63s0,0,0,0l1.64,1.54h-8.67a.83.83,0,0,0-.87.82.41.41,0,0,0,0,.11l.26,3.73h-5.6a.86.86,0,0,0-.87.86V943l.26,3.73H192a.85.85,0,0,0-.87.84v.09l.19,2.8h-3.26a.42.42,0,0,0-.44.42v0a.52.52,0,0,0,.5.47h3.27a.87.87,0,0,0,.87-.87v-.07l-.2-2.8h5.6a.87.87,0,0,0,.87-.85v-.08l-.26-3.73h5.6a.86.86,0,0,0,.86-.86V942l-.26-3.73h8.68l-1.43,1.54a.42.42,0,0,0-.1.45.54.54,0,0,0,.36.33.42.42,0,0,0,.44-.12l2.17-2.34A.46.46,0,0,0,214.67,937.67Z" transform="translate(-76.35 -49.37)" style="fill: #010202"/>
      </g>
      <g>
        <path d="M345.2,824.58l1.66,23.77h8l-1.74-24.82h-7A1,1,0,0,0,345.2,824.58Z" transform="translate(-76.35 -49.37)" style="fill: #010202"/>
        <path d="M365,848.35l-1.69-23.77a1.14,1.14,0,0,0-1.13-1.05h-7l1.74,24.82Z" transform="translate(-76.35 -49.37)" style="fill: #010202"/>
        <path d="M368.25,812.35H338.58a2.92,2.92,0,0,0-2.95,2.89,2.44,2.44,0,0,0,0,.27l2.07,29.71a3.46,3.46,0,0,0,3.39,3.17h3.65l-1.66-23.77a2.92,2.92,0,0,1,2.67-3.15,1.82,1.82,0,0,1,.33,0h16a3.45,3.45,0,0,1,3.38,3.16l1.66,23.77h3.66a2.91,2.91,0,0,0,2.93-2.89,2.62,2.62,0,0,0,0-.28l-2.07-29.67A3.44,3.44,0,0,0,368.25,812.35ZM356.13,819h-4.5a1.14,1.14,0,0,1-1.12-1.06,1,1,0,0,1,1-1H356a1.16,1.16,0,0,1,1.13,1,1,1,0,0,1-.94,1.06Z" transform="translate(-76.35 -49.37)" style="fill: #010202"/>
      </g>
      <g>
        <path d="M155.52,152.05h-5.6a.42.42,0,0,0-.44.42v0l.27,3.74a.44.44,0,0,1-.42.46h-6.08a.42.42,0,0,0-.44.42v.05l.26,3.73a.44.44,0,0,1-.39.47H137a.41.41,0,0,0-.43.41v.05l.26,3.74a.43.43,0,0,1-.4.46h-5.16a.85.85,0,0,0-.87.84.34.34,0,0,0,0,.1l.2,2.8a1,1,0,0,0,1,.93h25.19a.87.87,0,0,0,.87-.85v-.08L156.53,153A1,1,0,0,0,155.52,152.05Z" transform="translate(-76.35 -49.37)" style="fill: #010202"/>
        <path d="M156.45,145.8h0a.44.44,0,0,0-.12-.15l-2.49-2.33a.47.47,0,1,0-.66.66l1.65,1.53h-8.67a.85.85,0,0,0-.87.84.34.34,0,0,0,0,.1l.26,3.73H140a.85.85,0,0,0-.87.84v.09l.26,3.74h-5.6a.85.85,0,0,0-.87.84v.09l.2,2.8H129.8a.43.43,0,0,0-.43.43v0a.51.51,0,0,0,.5.46h3.27a.86.86,0,0,0,.86-.84v-.09l-.19-2.8h5.6a.87.87,0,0,0,.87-.87v-.06l-.27-3.74h5.6a.87.87,0,0,0,.87-.85v-.08l-.17-3.73H155L153.55,148a.43.43,0,0,0-.09.46.5.5,0,0,0,.36.33.45.45,0,0,0,.44-.13l2.17-2.33A.47.47,0,0,0,156.45,145.8Z" transform="translate(-76.35 -49.37)" style="fill: #010202"/>
      </g>
    </g>
  </g>
</svg>
