<svg id="Слой_1" data-name="Слой 1" xmlns="http://www.w3.org/2000/svg" viewBox="0 0 2649.05 1165.57">
  <g>
    <g id="Фундамент">
      <g>
        <polygon points="1682.95 763.71 1681.68 765.02 1542.74 765.02 1544.01 763.71 1682.95 763.71" style="fill: #818a61"/>
        <polygon points="1544.01 763.71 1542.74 765.02 1531.82 607.61 1533.09 606.28 1544.01 763.71" style="fill: #818a61"/>
        <polygon points="1672.03 606.28 1682.95 763.71 1544.01 763.71 1533.09 606.28 1672.03 606.28" style="fill: #cfdb98"/>
      </g>
      <g>
        <polygon points="1091.42 765.6 1090.15 766.91 994.06 766.91 995.33 765.6 1091.42 765.6" style="fill: #818a61"/>
        <polygon points="995.33 765.6 994.06 766.91 990.57 716.71 991.84 715.38 995.33 765.6" style="fill: #818a61"/>
        <polygon points="1087.93 715.38 1091.42 765.6 995.33 765.6 991.84 715.38 1087.93 715.38" style="fill: #cfdb98"/>
      </g>
      <g>
        <polygon points="1672.49 609.6 1671.22 610.91 935.48 610.91 936.75 609.6 1672.49 609.6" style="fill: #818a61"/>
        <polygon points="936.75 609.6 935.48 610.91 911.46 264.58 912.73 263.27 936.75 609.6" style="fill: #818a61"/>
        <polygon points="1648.47 263.27 1672.49 609.6 936.75 609.6 912.73 263.27 1648.47 263.27" style="fill: #cfdb98"/>
      </g>
      <g>
        <polygon points="1271.43 653.28 1270.16 654.6 1038.88 654.6 1040.15 653.28 1271.43 653.28" style="fill: #818a61"/>
        <polygon points="1040.15 653.28 1038.88 654.6 1035.66 608.1 1036.93 606.79 1040.15 653.28" style="fill: #818a61"/>
        <polygon points="1268.21 606.79 1271.43 653.28 1040.15 653.28 1036.93 606.79 1268.21 606.79" style="fill: #cfdb98"/>
      </g>
      <g>
        <polygon points="1050.05 765.59 1048.78 766.9 946.32 766.9 947.59 765.59 1050.05 765.59" style="fill: #818a61"/>
        <polygon points="947.59 765.59 946.32 766.9 934.2 592.26 935.47 590.95 947.59 765.59" style="fill: #818a61"/>
        <polygon points="1037.94 590.95 1050.05 765.59 947.59 765.59 935.47 590.95 1037.94 590.95" style="fill: #cfdb98"/>
      </g>
      <polygon points="1663.74 495.29 1674.66 652.7 1536.47 652.7 1525.56 495.29 1663.74 495.29" style="fill: #cfdb98"/>
    </g>
    <g id="Аудитории">
      <g id="MLOC-rooms-G">
        <g id="room-279">
          <g>
            <polygon points="969.73 423.31 963.38 429.88 932.33 429.88 938.68 423.31 969.73 423.31" style="fill: #7a7a75"/>
            <polygon points="938.68 423.31 932.33 429.88 927.27 356.95 933.62 350.38 938.68 423.31" style="fill: #7a7a75"/>
            <polygon points="964.67 350.38 969.73 423.31 938.68 423.31 933.62 350.38 964.67 350.38" style="fill: #bcb9b2"/>
          </g>
        </g>
        <g id="room-278">
          <g>
            <polygon points="1057.24 505.48 1050.89 512.05 1019.85 512.05 1026.2 505.48 1057.24 505.48" style="fill: #7a7a75"/>
            <polygon points="1026.2 505.48 1019.85 512.05 1009.09 356.83 1015.44 350.25 1026.2 505.48" style="fill: #7a7a75"/>
            <polygon points="1046.48 350.25 1057.24 505.48 1026.2 505.48 1015.44 350.25 1046.48 350.25" style="fill: #bcb9b2"/>
          </g>
        </g>
        <g id="room-277">
          <g>
            <polygon points="975.71 508.96 969.35 515.54 938.31 515.54 944.66 508.96 975.71 508.96" style="fill: #7a7a75"/>
            <polygon points="944.66 508.96 938.31 515.54 933.26 442.61 939.61 436.03 944.66 508.96" style="fill: #7a7a75"/>
            <polygon points="970.64 436.03 975.71 508.96 944.66 508.96 939.61 436.03 970.64 436.03" style="fill: #bcb9b2"/>
          </g>
        </g>
        <g id="room-276">
          <g>
            <polygon points="981.73 594.76 975.38 601.34 944.33 601.34 950.68 594.76 981.73 594.76" style="fill: #7a7a75"/>
            <polygon points="950.68 594.76 944.33 601.34 939.27 528.4 945.63 521.83 950.68 594.76" style="fill: #7a7a75"/>
            <polygon points="976.67 521.83 981.73 594.76 950.68 594.76 945.63 521.83 976.67 521.83" style="fill: #bcb9b2"/>
          </g>
        </g>
        <g id="stairs-289">
          <g>
            <polygon points="1668.12 595.58 1661.77 602.16 1582 602.16 1588.35 595.58 1668.12 595.58" style="fill: #955f21"/>
            <polygon points="1588.35 595.58 1582 602.16 1579.47 565.69 1585.82 559.11 1588.35 595.58" style="fill: #955f21"/>
            <polygon points="1665.59 559.11 1668.12 595.58 1588.35 595.58 1585.82 559.11 1665.59 559.11" style="fill: #ed9337"/>
          </g>
        </g>
        <g id="stairs-287">
          <g>
            <polygon points="1648.5 303.83 1642.15 310.41 1562.38 310.41 1568.73 303.83 1648.5 303.83" style="fill: #955f21"/>
            <polygon points="1568.73 303.83 1562.38 310.41 1559.85 273.94 1566.2 267.36 1568.73 303.83" style="fill: #955f21"/>
            <polygon points="1645.97 267.36 1648.5 303.83 1568.73 303.83 1566.2 267.36 1645.97 267.36" style="fill: #ed9337"/>
          </g>
        </g>
        <g id="stairs-281">
          <g>
            <polygon points="1010.58 303.25 1004.23 309.83 924.46 309.83 930.81 303.25 1010.58 303.25" style="fill: #955f21"/>
            <polygon points="930.81 303.25 924.46 309.83 921.93 273.36 928.28 266.78 930.81 303.25" style="fill: #955f21"/>
            <polygon points="1008.06 266.78 1010.58 303.25 930.81 303.25 928.28 266.78 1008.06 266.78" style="fill: #ed9337"/>
          </g>
        </g>
      </g>
    </g>
    <g id="Стены">
      <g>
        <polygon points="964.59 749.85 958.24 756.43 956.27 756.43 962.63 749.85 964.59 749.85" style="fill: #7a7a75"/>
        <polygon points="962.63 749.85 956.27 756.43 946.4 613.92 952.75 607.34 962.63 749.85" style="fill: #7a7a75"/>
        <polygon points="954.71 607.34 964.59 749.85 962.63 749.85 952.75 607.34 954.71 607.34" style="fill: #bcb9b2"/>
      </g>
      <g>
        <polygon points="935.39 340.3 929.04 346.88 927.08 346.88 933.43 340.3 935.39 340.3" style="fill: #7a7a75"/>
        <polygon points="933.43 340.3 927.08 346.88 925.04 317.42 931.39 310.85 933.43 340.3" style="fill: #7a7a75"/>
        <polygon points="933.35 310.85 935.39 340.3 933.43 340.3 931.39 310.85 933.35 310.85" style="fill: #bcb9b2"/>
      </g>
      <g>
        <polygon points="1576.45 595.76 1570.1 602.33 1193.21 602.33 1199.56 595.76 1576.45 595.76" style="fill: #7a7a75"/>
        <polygon points="1199.56 595.76 1193.21 602.33 1193.08 600.37 1199.43 593.79 1199.56 595.76" style="fill: #7a7a75"/>
        <polygon points="1576.32 593.79 1576.45 595.76 1199.56 595.76 1199.43 593.79 1576.32 593.79" style="fill: #bcb9b2"/>
      </g>
      <g>
        <polygon points="1664.22 543.12 1657.87 549.7 1655.9 549.7 1662.25 543.12 1664.22 543.12" style="fill: #7a7a75"/>
        <polygon points="1662.25 543.12 1655.9 549.7 1640.24 323.93 1646.59 317.36 1662.25 543.12" style="fill: #7a7a75"/>
        <polygon points="1648.56 317.36 1664.22 543.12 1662.25 543.12 1646.59 317.36 1648.56 317.36" style="fill: #bcb9b2"/>
      </g>
      <g>
        <path d="M1254.84,642.73a.83.83,0,0,0-.83.82.2.2,0,0,0,0,.07l.24,3.57a.83.83,0,0,1-.75.89h-2.76l-.93-13.4a2,2,0,0,0-1.33-1.7l-.27-.09h4.15a1,1,0,0,1,1,.89l.18,2.68a1,1,0,0,0,1,.89.83.83,0,0,0,.84-.81v-.08l-.2-2.68a2.9,2.9,0,0,0-2.85-2.67h-9.81a1.64,1.64,0,0,0-1.66,1.61,1,1,0,0,0,0,.17l1.11,16a2,2,0,0,0,1.34,1.7l5.49,1.79a1.77,1.77,0,0,0,.56.08,1.64,1.64,0,0,0,1.66-1.63v-.15l-.06-.89h2.67a2.45,2.45,0,0,0,2.49-2.41,2.17,2.17,0,0,0,0-.26l-.24-3.57A1,1,0,0,0,1254.84,642.73Z" transform="translate(-70.96 -50.47)" style="fill: #010202"/>
        <path d="M1262.37,639.42l-3.81-3.56a.94.94,0,0,0-1-.2.83.83,0,0,0-.49.83l.19,2.67h-3.57a.81.81,0,0,0-.83.81.22.22,0,0,0,0,.08,1,1,0,0,0,1,.9h3.57l.18,2.67a1,1,0,0,0,.61.82.84.84,0,0,0,1-.19l3.32-3.57A.9.9,0,0,0,1262.37,639.42Z" transform="translate(-70.96 -50.47)" style="fill: #010202"/>
      </g>
      <g>
        <polygon points="1557.57 269.59 1551.22 276.16 1047.15 276.16 1053.51 269.59 1557.57 269.59" style="fill: #7a7a75"/>
        <polygon points="1051.42 269.59 1045.07 276.16 1044.93 274.13 1051.28 267.55 1051.42 269.59" style="fill: #7a7a75"/>
        <polygon points="1164.25 595.12 1157.9 601.69 1069.73 601.69 1076.09 595.12 1164.25 595.12" style="fill: #7a7a75"/>
        <polygon points="1073.86 593.08 1067.51 599.65 1045.07 276.16 1051.42 269.59 1073.86 593.08" style="fill: #7a7a75"/>
        <polygon points="1074 595.12 1067.65 601.69 1067.51 599.65 1073.86 593.08 1074 595.12" style="fill: #7a7a75"/>
        <polygon points="1076.09 595.12 1069.73 601.69 1067.65 601.69 1074 595.12 1076.09 595.12" style="fill: #7a7a75"/>
        <polygon points="1557.43 267.55 1557.57 269.59 1053.51 269.59 1075.94 593.08 1164.11 593.08 1164.25 595.12 1076.09 595.12 1074 595.12 1073.86 593.08 1051.42 269.59 1051.28 267.55 1053.36 267.55 1557.43 267.55" style="fill: #bcb9b2"/>
      </g>
      <g>
        <polygon points="1043.38 269.98 1037.03 276.56 1012.49 276.56 1018.84 269.98 1043.38 269.98" style="fill: #7a7a75"/>
        <polygon points="1018.84 269.98 1012.49 276.56 1012.36 274.6 1018.71 268.02 1018.84 269.98" style="fill: #7a7a75"/>
        <polygon points="1043.25 268.02 1043.38 269.98 1018.84 269.98 1018.71 268.02 1043.25 268.02" style="fill: #bcb9b2"/>
      </g>
    </g>
    <g id="Тексты">
      <text transform="matrix(1, 0, 0.07, 1, 952.59, 565.06)" style="isolation: isolate;font-size: 14.706515312194824px;fill: #1e1e1c;font-family: Arial-BoldMT, Arial;font-weight: 700">276</text>
      <g style="isolation: isolate">
        <text transform="matrix(1, 0, 0.07, 1, 1303.64, 431.95)" style="isolation: isolate;font-size: 19.79195213317871px;fill: #1e1e1c;font-family: Arial-BoldMT, Arial;font-weight: 700">А</text>
        <text transform="matrix(1, 0, 0.07, 1, 1317.9, 431.95)" style="isolation: isolate;font-size: 19.79195213317871px;fill: #1e1e1c;font-family: Arial-BoldMT, Arial;font-weight: 700;letter-spacing: 0.023989134532063573em">К</text>
        <text transform="matrix(1, 0, 0.07, 1, 1330.44, 431.95)" style="isolation: isolate;font-size: 19.79195213317871px;fill: #1e1e1c;font-family: Arial-BoldMT, Arial;font-weight: 700;letter-spacing: -0.023989134532063573em">Т</text>
        <text transform="matrix(1, 0, 0.07, 1, 1342.01, 431.95)" style="isolation: isolate;font-size: 19.79195213317871px;fill: #1e1e1c;font-family: Arial-BoldMT, Arial;font-weight: 700">ОВЫЙ З</text>
        <text transform="matrix(1, 0, 0.07, 1, 1423.01, 431.95)" style="isolation: isolate;font-size: 19.79195213317871px;fill: #1e1e1c;font-family: Arial-BoldMT, Arial;font-weight: 700;letter-spacing: 0.011994567266031786em">А</text>
        <text transform="matrix(1, 0, 0.07, 1, 1437.5, 431.95)" style="isolation: isolate;font-size: 19.79195213317871px;fill: #1e1e1c;font-family: Arial-BoldMT, Arial;font-weight: 700">Л</text>
      </g>
      <text transform="matrix(1, 0, 0.07, 1, 946.92, 477.14)" style="isolation: isolate;font-size: 14.706515312194824px;fill: #1e1e1c;font-family: Arial-BoldMT, Arial;font-weight: 700">277</text>
      <text transform="matrix(1, 0, 0.07, 1, 940.5, 391.91)" style="isolation: isolate;font-size: 14.706515312194824px;fill: #1e1e1c;font-family: Arial-BoldMT, Arial;font-weight: 700">279</text>
      <g style="isolation: isolate">
        <text transform="matrix(1, 0, 0.07, 1, 1024.96, 425.53)" style="isolation: isolate;font-size: 14.706515312194824px;fill: #1e1e1c;font-family: Arial-BoldMT, Arial;font-weight: 700">278</text>
        <text transform="matrix(1, 0, 0.07, 1, 1026.19, 443.13)" style="isolation: isolate;font-size: 14.706515312194824px;fill: #1e1e1c;font-family: Arial-BoldMT, Arial;font-weight: 700">280</text>
      </g>
    </g>
    <g id="Иконки">
      <g>
        <path d="M1046.78,330.5h-4.24a.32.32,0,0,0-.33.32v0l.2,2.83a.33.33,0,0,1-.31.35h-4.61a.34.34,0,0,0-.34.32v0l.2,2.83a.33.33,0,0,1-.31.35h-4.26a.34.34,0,0,0-.34.34v0l.2,2.82a.34.34,0,0,1-.32.36h-3.89a.65.65,0,0,0-.65.65v.06l.14,2.12a.77.77,0,0,0,.77.7h19a.63.63,0,0,0,.65-.62v-.08l-.88-12.74A.78.78,0,0,0,1046.78,330.5Z" transform="translate(-70.96 -50.47)" style="fill: #010202"/>
        <path d="M1047.48,325.75h0a.28.28,0,0,0-.08-.11l-1.89-1.77a.36.36,0,0,0-.49,0,.37.37,0,0,0,0,.5l1.25,1.16h-6.55a.65.65,0,0,0-.66.64v.07l.19,2.84H1035a.65.65,0,0,0-.67.63.15.15,0,0,0,0,.07l.18,2.84h-4.23a.66.66,0,0,0-.66.64v.06l.15,2.13h-2.48a.33.33,0,0,0-.33.33v0a.4.4,0,0,0,.38.36h2.47a.66.66,0,0,0,.67-.64.17.17,0,0,0,0-.07l-.14-2.13h4.24a.64.64,0,0,0,.66-.63v-.07l-.19-2.8h4.23a.66.66,0,0,0,.67-.64.13.13,0,0,0,0-.06l-.19-2.84h6.58l-1.09,1.17a.34.34,0,0,0-.07.35.37.37,0,0,0,.26.24.35.35,0,0,0,.35-.09l1.63-1.77A.31.31,0,0,0,1047.48,325.75Z" transform="translate(-70.96 -50.47)" style="fill: #010202"/>
      </g>
      <g>
        <path d="M1325.45,673.92h-5.7a.44.44,0,0,0-.43.44v0l.26,3.79a.45.45,0,0,1-.41.48H1313a.43.43,0,0,0-.45.42v.06l.26,3.79a.42.42,0,0,1-.39.47h-5.73a.43.43,0,0,0-.44.42v0l.26,3.8a.45.45,0,0,1-.42.47h-5.24a.86.86,0,0,0-.88.86.27.27,0,0,0,0,.09l.2,2.85a1,1,0,0,0,1,.95h25.6a.87.87,0,0,0,.88-.87V692l-1.19-17.07A1,1,0,0,0,1325.45,673.92Z" transform="translate(-70.96 -50.47)" style="fill: #010202"/>
        <path d="M1326.39,667.58h0a.44.44,0,0,0-.12-.15l-2.53-2.38a.48.48,0,0,0-.67,0,.47.47,0,0,0,0,.66l1.67,1.57H1316a.87.87,0,0,0-.89.86v.08l.27,3.8h-5.7a.88.88,0,0,0-.88.86V673l.26,3.79h-5.69a.88.88,0,0,0-.88.88v.07l.2,2.85h-3.32a.44.44,0,0,0-.44.43v0a.51.51,0,0,0,.51.47h3.32a.86.86,0,0,0,.88-.85v-.09l-.19-2.85h5.69a.88.88,0,0,0,.88-.88v-.07l-.27-3.79h5.69a.87.87,0,0,0,.88-.86V672l-.32-3.81h8.81l-1.46,1.57a.48.48,0,0,0-.09.46.53.53,0,0,0,.37.34.45.45,0,0,0,.44-.13l2.21-2.37A.48.48,0,0,0,1326.39,667.58Z" transform="translate(-70.96 -50.47)" style="fill: #010202"/>
      </g>
      <g>
        <path d="M1707.26,624.07H1703a.31.31,0,0,0-.33.31v0l.2,2.83a.33.33,0,0,1-.31.35H1698a.32.32,0,0,0-.33.32v0l.2,2.83a.33.33,0,0,1-.31.35h-4.26a.34.34,0,0,0-.34.34v0l.21,2.82a.34.34,0,0,1-.32.36H1689a.65.65,0,0,0-.65.64v.07l.14,2.12a.77.77,0,0,0,.76.7h19.06a.64.64,0,0,0,.65-.62v-.08l-.89-12.74A.76.76,0,0,0,1707.26,624.07Z" transform="translate(-70.96 -50.47)" style="fill: #010202"/>
        <path d="M1708,619.33h0a.21.21,0,0,0-.08-.11l-1.89-1.77a.35.35,0,0,0-.5.5l1.25,1.16h-6.57a.64.64,0,0,0-.66.64v.07l.19,2.84h-4.24a.64.64,0,0,0-.66.63v.07l.2,2.83h-4.24a.65.65,0,0,0-.66.64v.06l.15,2.13h-2.48a.33.33,0,0,0-.33.32v0a.38.38,0,0,0,.37.36h2.47a.64.64,0,0,0,.66-.64s0-.05,0-.07l-.14-2.13h4.24a.65.65,0,0,0,.66-.63v-.07l-.2-2.83h4.24a.65.65,0,0,0,.66-.64s0,0,0-.06l-.19-2.84h6.57l-1.08,1.17a.31.31,0,0,0-.07.34.36.36,0,0,0,.26.25.35.35,0,0,0,.35-.09l1.64-1.77A.32.32,0,0,0,1708,619.33Z" transform="translate(-70.96 -50.47)" style="fill: #010202"/>
      </g>
      <g>
        <path d="M1687.69,333.32h-4.25a.32.32,0,0,0-.32.33v0l.19,2.83a.33.33,0,0,1-.29.36h-4.64a.32.32,0,0,0-.33.3.09.09,0,0,0,0,.05l.19,2.83a.33.33,0,0,1-.29.36h-4.23a.31.31,0,0,0-.33.3v0l.19,2.84a.32.32,0,0,1-.29.35h-3.92a.66.66,0,0,0-.66.66v0l.15,2.13a.78.78,0,0,0,.75.71h19.11a.65.65,0,0,0,.66-.64v-.07l-.9-12.74A.78.78,0,0,0,1687.69,333.32Z" transform="translate(-70.96 -50.47)" style="fill: #010202"/>
        <path d="M1688.39,328.6h0a.36.36,0,0,0-.08-.12l-1.9-1.77a.33.33,0,0,0-.47,0l0,0a.33.33,0,0,0,0,.47v0l1.24,1.16h-6.57a.66.66,0,0,0-.66.65.2.2,0,0,0,0,.07l.19,2.82h-4.25a.65.65,0,0,0-.65.65v.06l.19,2.83h-4.24a.66.66,0,0,0-.66.64.15.15,0,0,0,0,.07l.14,2.12h-2.48a.33.33,0,0,0-.33.33v0a.38.38,0,0,0,.38.34h2.48a.66.66,0,0,0,.66-.66v0l-.15-2.12h4.24a.67.67,0,0,0,.67-.66v-.05l-.21-2.83h4.25a.66.66,0,0,0,.66-.66v-.05l-.2-2.82h6.57l-1.08,1.15a.35.35,0,0,0-.08.35.41.41,0,0,0,.28.25.31.31,0,0,0,.33-.09l1.65-1.77A.34.34,0,0,0,1688.39,328.6Z" transform="translate(-70.96 -50.47)" style="fill: #010202"/>
      </g>
    </g>
  </g>
  <g>
    <g id="Фундамент-2" data-name="Фундамент">
      <g>
        <polygon points="2649.05 860.13 2647.8 861.43 2516.53 861.43 2517.78 860.13 2649.05 860.13" style="fill: #818a61"/>
        <polygon points="2517.78 860.13 2516.53 861.43 2513 810.55 2514.25 809.25 2517.78 860.13" style="fill: #818a61"/>
        <polygon points="2645.52 809.25 2649.05 860.13 2517.78 860.13 2514.25 809.25 2645.52 809.25" style="fill: #cfdb98"/>
      </g>
      <g id="Под_30" data-name="Под 30">
        <g>
          <polygon points="2615.19 1121.84 2614.69 1122.36 2364.05 1122.36 2364.55 1121.84 2615.19 1121.84" style="fill: #818a61"/>
          <polygon points="2364.55 1121.84 2364.05 1122.36 2353.94 976.55 2354.44 976.03 2364.55 1121.84" style="fill: #818a61"/>
          <polygon points="2605.08 976.03 2615.19 1121.84 2364.55 1121.84 2354.44 976.03 2605.08 976.03" style="fill: #cfdb98"/>
        </g>
      </g>
      <g>
        <polygon points="2548.79 848.97 2547.54 850.26 2269.29 850.26 2270.54 848.97 2548.79 848.97" style="fill: #818a61"/>
        <polygon points="2270.54 848.97 2269.29 850.26 2210.41 1.29 2211.66 0 2270.54 848.97" style="fill: #818a61"/>
        <polygon points="2489.91 0 2548.79 848.97 2270.54 848.97 2211.66 0 2489.91 0" style="fill: #cfdb98"/>
      </g>
      <g>
        <polygon points="2565.81 1093.23 2564.56 1094.52 1721.44 1094.52 1722.69 1093.23 2565.81 1093.23" style="fill: #818a61"/>
        <polygon points="1722.69 1093.23 1721.44 1094.52 1703.16 830.97 1704.41 829.68 1722.69 1093.23" style="fill: #818a61"/>
        <polygon points="2547.53 829.68 2565.81 1093.23 1722.69 1093.23 1704.41 829.68 2547.53 829.68" style="fill: #cfdb98"/>
      </g>
      <polygon points="2571.66 1067.91 2574 1101.59 2363.16 1101.59 2360.82 1067.91 2571.66 1067.91" style="fill: #cfdb98"/>
    </g>
    <g id="Аудитории-2" data-name="Аудитории">
      <g id="MLOC-rooms-V-2-col">
        <g id="room-272">
          <g>
            <polygon points="2487.87 46.14 2481.62 52.61 2387.03 52.61 2393.28 46.14 2487.87 46.14" style="fill: #7a7a75"/>
            <polygon points="2393.28 46.14 2387.03 52.61 2384.31 13.36 2390.56 6.89 2393.28 46.14" style="fill: #7a7a75"/>
            <polygon points="2485.14 6.89 2487.87 46.14 2393.28 46.14 2390.56 6.89 2485.14 6.89" style="fill: #bcb9b2"/>
          </g>
        </g>
        <g id="room-270b">
          <g>
            <polygon points="2512.81 411.69 2506.56 418.16 2411.98 418.16 2418.23 411.69 2512.81 411.69" style="fill: #7a7a75"/>
            <polygon points="2418.23 411.69 2411.98 418.16 2387.79 69.34 2394.04 62.87 2418.23 411.69" style="fill: #7a7a75"/>
            <polygon points="2488.62 62.87 2512.81 411.69 2418.23 411.69 2394.04 62.87 2488.62 62.87" style="fill: #bcb9b2"/>
          </g>
        </g>
        <g id="room-269">
          <g>
            <polygon points="2526.01 606.54 2519.76 613.01 2425.18 613.01 2431.43 606.54 2526.01 606.54" style="fill: #7a7a75"/>
            <polygon points="2431.43 606.54 2425.18 613.01 2412.92 436.24 2419.17 429.76 2431.43 606.54" style="fill: #7a7a75"/>
            <polygon points="2513.75 429.76 2526.01 606.54 2431.43 606.54 2419.17 429.76 2513.75 429.76" style="fill: #bcb9b2"/>
          </g>
        </g>
        <g id="room-267">
          <g>
            <polygon points="2535.43 722.71 2529.18 729.17 2434.6 729.17 2440.85 722.71 2535.43 722.71" style="fill: #7a7a75"/>
            <polygon points="2440.85 722.71 2434.6 729.17 2427.64 628.78 2433.89 622.31 2440.85 722.71" style="fill: #7a7a75"/>
            <polygon points="2528.47 622.31 2535.43 722.71 2440.85 722.71 2433.89 622.31 2528.47 622.31" style="fill: #bcb9b2"/>
          </g>
        </g>
        <g id="room-264">
          <g>
            <polygon points="2487.93 822.29 2481.68 828.76 2442.13 828.76 2448.38 822.29 2487.93 822.29" style="fill: #7a7a75"/>
            <polygon points="2448.38 822.29 2442.13 828.76 2436.19 743.27 2442.44 736.8 2448.38 822.29" style="fill: #7a7a75"/>
            <polygon points="2482 736.8 2487.93 822.29 2448.38 822.29 2442.44 736.8 2482 736.8" style="fill: #bcb9b2"/>
          </g>
        </g>
        <g id="stairs-262">
          <g>
            <polygon points="2549.64 928.52 2543.39 935 2448.79 935 2455.04 928.52 2549.64 928.52" style="fill: #955f21"/>
            <polygon points="2455.04 928.52 2448.79 935 2444.65 875.18 2450.9 868.71 2455.04 928.52" style="fill: #955f21"/>
            <polygon points="2545.49 868.71 2549.64 928.52 2455.04 928.52 2450.9 868.71 2545.49 868.71" style="fill: #ed9337"/>
          </g>
        </g>
      </g>
      <g id="MLOC-rooms-V-1-col">
        <g id="room-268">
          <g>
            <polygon points="2376.96 720.46 2370.71 726.92 2276.13 726.92 2282.38 720.46 2376.96 720.46" style="fill: #7a7a75"/>
            <polygon points="2282.38 720.46 2276.13 726.92 2256.38 442.14 2262.63 435.67 2282.38 720.46" style="fill: #7a7a75"/>
            <polygon points="2357.21 435.67 2376.96 720.46 2282.38 720.46 2262.63 435.67 2357.21 435.67" style="fill: #bcb9b2"/>
          </g>
        </g>
        <g id="room-270">
          <g>
            <polygon points="2355.45 417.16 2349.2 423.63 2254.62 423.63 2260.87 417.16 2355.45 417.16" style="fill: #7a7a75"/>
            <polygon points="2260.87 417.16 2254.62 423.63 2233.58 120.29 2239.83 113.81 2260.87 417.16" style="fill: #7a7a75"/>
            <polygon points="2334.42 113.81 2355.45 417.16 2260.87 417.16 2239.83 113.81 2334.42 113.81" style="fill: #bcb9b2"/>
          </g>
        </g>
        <g id="elevator-266">
          <g>
            <polygon points="2386.26 822.33 2380.01 828.8 2285.43 828.8 2291.68 822.33 2386.26 822.33" style="fill: #3a702e"/>
            <polygon points="2291.68 822.33 2285.43 828.8 2279.65 745.55 2285.9 739.08 2291.68 822.33" style="fill: #3a702e"/>
            <polygon points="2380.49 739.08 2386.26 822.33 2291.68 822.33 2285.9 739.08 2380.49 739.08" style="fill: #5cad31"/>
          </g>
        </g>
        <g id="stairs-273">
          <g>
            <polygon points="2330.27 60.75 2324.02 67.22 2229.44 67.22 2235.69 60.75 2330.27 60.75" style="fill: #955f21"/>
            <polygon points="2235.69 60.75 2229.44 67.22 2225.72 13.61 2231.97 7.14 2235.69 60.75" style="fill: #955f21"/>
            <polygon points="2326.55 7.14 2330.27 60.75 2235.69 60.75 2231.97 7.14 2326.55 7.14" style="fill: #ed9337"/>
          </g>
        </g>
      </g>
      <g id="MLOC-rooms-V-2-row">
        <g id="room-254">
          <g>
            <polygon points="2281.35 928.92 2275.1 935.39 2164.54 935.39 2170.79 928.92 2281.35 928.92" style="fill: #7a7a75"/>
            <polygon points="2170.79 928.92 2164.54 935.39 2158.17 843.58 2164.42 837.11 2170.79 928.92" style="fill: #7a7a75"/>
            <polygon points="2274.99 837.11 2281.35 928.92 2170.79 928.92 2164.42 837.11 2274.99 837.11" style="fill: #bcb9b2"/>
          </g>
        </g>
        <g id="room-252">
          <g>
            <polygon points="2158.68 928.96 2152.43 935.43 2011.8 935.43 2018.05 928.96 2158.68 928.96" style="fill: #7a7a75"/>
            <polygon points="2018.05 928.96 2011.8 935.43 2005.43 843.62 2011.68 837.15 2018.05 928.96" style="fill: #7a7a75"/>
            <polygon points="2152.32 837.15 2158.68 928.96 2018.05 928.96 2011.68 837.15 2152.32 837.15" style="fill: #bcb9b2"/>
          </g>
        </g>
        <g id="room-250">
          <g>
            <polygon points="2005.54 928.96 1999.29 935.43 1865.96 935.43 1872.21 928.96 2005.54 928.96" style="fill: #7a7a75"/>
            <polygon points="1872.21 928.96 1865.96 935.43 1859.6 843.62 1865.85 837.15 1872.21 928.96" style="fill: #7a7a75"/>
            <polygon points="1999.18 837.15 2005.54 928.96 1872.21 928.96 1865.85 837.15 1999.18 837.15" style="fill: #bcb9b2"/>
          </g>
        </g>
        <g id="room-248">
          <g>
            <polygon points="1860.24 928.96 1853.99 935.43 1743.43 935.43 1749.68 928.96 1860.24 928.96" style="fill: #7a7a75"/>
            <polygon points="1749.68 928.96 1743.43 935.43 1737.07 843.62 1743.32 837.15 1749.68 928.96" style="fill: #7a7a75"/>
            <polygon points="1853.88 837.15 1860.24 928.96 1749.68 928.96 1743.32 837.15 1853.88 837.15" style="fill: #bcb9b2"/>
          </g>
        </g>
        <g id="toilet-256">
          <g>
            <polygon points="2395.13 928.96 2388.88 935.43 2294.28 935.43 2300.53 928.96 2395.13 928.96" style="fill: #3b7b90"/>
            <polygon points="2300.53 928.96 2294.28 935.43 2287.92 843.62 2294.17 837.15 2300.53 928.96" style="fill: #3b7b90"/>
            <polygon points="2388.76 837.15 2395.13 928.96 2300.53 928.96 2294.17 837.15 2388.76 837.15" style="fill: #5abfe6"/>
          </g>
        </g>
      </g>
      <g id="MLOC-rooms-V-1-row">
        <g id="room-261">
          <g>
            <polygon points="2610.26 1103.46 2604.01 1109.93 2373.4 1109.93 2379.65 1103.46 2610.26 1103.46" style="fill: #7a7a75"/>
            <polygon points="2379.65 1103.46 2373.4 1109.93 2364.83 986.41 2371.08 979.94 2379.65 1103.46" style="fill: #7a7a75"/>
            <polygon points="2601.69 979.94 2610.26 1103.46 2379.65 1103.46 2371.08 979.94 2601.69 979.94" style="fill: #bcb9b2"/>
          </g>
        </g>
        <g id="room-260">
          <g>
            <polygon points="2366.29 1072.19 2360.04 1078.66 2302.83 1078.66 2309.08 1072.19 2366.29 1072.19" style="fill: #7a7a75"/>
            <polygon points="2309.08 1072.19 2302.83 1078.66 2296.47 986.85 2302.72 980.38 2309.08 1072.19" style="fill: #7a7a75"/>
            <polygon points="2359.92 980.38 2366.29 1072.19 2309.08 1072.19 2302.72 980.38 2359.92 980.38" style="fill: #bcb9b2"/>
          </g>
        </g>
        <g id="room-255">
          <g>
            <polygon points="2296.96 1072.22 2290.71 1078.69 2182.93 1078.69 2189.18 1072.22 2296.96 1072.22" style="fill: #7a7a75"/>
            <polygon points="2189.18 1072.22 2182.93 1078.69 2176.57 986.88 2182.82 980.41 2189.18 1072.22" style="fill: #7a7a75"/>
            <polygon points="2290.6 980.41 2296.96 1072.22 2189.18 1072.22 2182.82 980.41 2290.6 980.41" style="fill: #bcb9b2"/>
          </g>
        </g>
        <g id="room-253">
          <g>
            <polygon points="2179.2 1072.22 2172.95 1078.69 2081.14 1078.69 2087.39 1072.22 2179.2 1072.22" style="fill: #7a7a75"/>
            <polygon points="2087.39 1072.22 2081.14 1078.69 2074.77 986.88 2081.02 980.41 2087.39 1072.22" style="fill: #7a7a75"/>
            <polygon points="2172.84 980.41 2179.2 1072.22 2087.39 1072.22 2081.02 980.41 2172.84 980.41" style="fill: #bcb9b2"/>
          </g>
        </g>
        <g id="room-251">
          <g>
            <polygon points="2076.78 1072.22 2070.53 1078.69 1927.05 1078.69 1933.3 1072.22 2076.78 1072.22" style="fill: #7a7a75"/>
            <polygon points="1933.3 1072.22 1927.05 1078.69 1920.68 986.88 1926.93 980.41 1933.3 1072.22" style="fill: #7a7a75"/>
            <polygon points="2070.41 980.41 2076.78 1072.22 1933.3 1072.22 1926.93 980.41 2070.41 980.41" style="fill: #bcb9b2"/>
          </g>
        </g>
        <g id="room-249">
          <g>
            <polygon points="1921.5 1072.22 1915.25 1078.69 1756.74 1078.69 1762.99 1072.22 1921.5 1072.22" style="fill: #7a7a75"/>
            <polygon points="1762.99 1072.22 1756.74 1078.69 1750.38 986.88 1756.63 980.41 1762.99 1072.22" style="fill: #7a7a75"/>
            <polygon points="1915.13 980.41 1921.5 1072.22 1762.99 1072.22 1756.63 980.41 1915.13 980.41" style="fill: #bcb9b2"/>
          </g>
        </g>
      </g>
    </g>
    <g id="Стена">
      <g>
        <polygon points="2551.37 970.57 2545.12 977.04 2543.18 977.04 2549.43 970.57 2551.37 970.57" style="fill: #7a7a75"/>
        <polygon points="2549.43 970.57 2543.18 977.04 2540.83 943.23 2547.08 936.76 2549.43 970.57" style="fill: #7a7a75"/>
        <polygon points="2549.02 936.76 2551.37 970.57 2549.43 970.57 2547.08 936.76 2549.02 936.76" style="fill: #bcb9b2"/>
      </g>
      <g>
        <polygon points="2540.75 792.89 2534.5 799.36 2532.57 799.36 2538.82 792.89 2540.75 792.89" style="fill: #7a7a75"/>
        <polygon points="2538.82 792.89 2532.57 799.36 2528.6 742.13 2534.85 735.66 2538.82 792.89" style="fill: #7a7a75"/>
        <polygon points="2536.78 735.66 2540.75 792.89 2538.82 792.89 2534.85 735.66 2536.78 735.66" style="fill: #bcb9b2"/>
      </g>
      <g>
        <polygon points="2241.12 106.44 2234.87 112.91 2232.93 112.91 2239.18 106.44 2241.12 106.44" style="fill: #7a7a75"/>
        <polygon points="2239.18 106.44 2232.93 112.91 2230.45 77.17 2236.7 70.7 2239.18 106.44" style="fill: #7a7a75"/>
        <polygon points="2238.64 70.7 2241.12 106.44 2239.18 106.44 2236.7 70.7 2238.64 70.7" style="fill: #bcb9b2"/>
      </g>
      <g>
        <polygon points="2379.84 9.16 2373.59 15.63 2334.95 15.63 2341.2 9.16 2379.84 9.16" style="fill: #7a7a75"/>
        <polygon points="2341.2 9.16 2334.95 15.63 2334.81 13.7 2341.06 7.22 2341.2 9.16" style="fill: #7a7a75"/>
        <polygon points="2379.7 7.22 2379.84 9.16 2341.2 9.16 2341.06 7.22 2379.7 7.22" style="fill: #bcb9b2"/>
      </g>
    </g>
    <g id="Тексты-2" data-name="Тексты">
      <text transform="matrix(1, 0, 0.07, 1, 1783.7, 886.26)" style="isolation: isolate;font-size: 21.10279083251953px;fill: #1e1e1c;font-family: Arial-BoldMT, Arial;font-weight: 700">248</text>
      <text transform="matrix(1, 0, 0.07, 1, 1817.39, 1030.52)" style="isolation: isolate;font-size: 21.10279083251953px;fill: #1e1e1c;font-family: Arial-BoldMT, Arial;font-weight: 700">249</text>
      <text transform="matrix(1, 0, 0.07, 1, 2317.65, 1029.52)" style="isolation: isolate;font-size: 21.10279083251953px;fill: #1e1e1c;font-family: Arial-BoldMT, Arial;font-weight: 700">260</text>
      <text transform="matrix(1, 0, 0.07, 1, 1918.04, 886.26)" style="isolation: isolate;font-size: 21.10279083251953px;fill: #1e1e1c;font-family: Arial-BoldMT, Arial;font-weight: 700">250</text>
      <text transform="matrix(1, 0, 0.07, 1, 1987.04, 1030.52)" style="isolation: isolate;font-size: 21.10279083251953px;fill: #1e1e1c;font-family: Arial-BoldMT, Arial;font-weight: 700">251</text>
      <text transform="matrix(1, 0, 0.07, 1, 2113.85, 1029.55)" style="isolation: isolate;font-size: 21.10279083251953px;fill: #1e1e1c;font-family: Arial-BoldMT, Arial;font-weight: 700">253</text>
      <text transform="matrix(1, 0, 0.07, 1, 2067.35, 886.26)" style="isolation: isolate;font-size: 21.10279083251953px;fill: #1e1e1c;font-family: Arial-BoldMT, Arial;font-weight: 700">252</text>
      <text transform="matrix(1, 0, 0.07, 1, 2204.44, 886.26)" style="isolation: isolate;font-size: 21.10279083251953px;fill: #1e1e1c;font-family: Arial-BoldMT, Arial;font-weight: 700">254</text>
      <text transform="matrix(1, 0, 0.07, 1, 2222.62, 1030.52)" style="isolation: isolate;font-size: 21.10279083251953px;fill: #1e1e1c;font-family: Arial-BoldMT, Arial;font-weight: 700">255</text>
      <text transform="matrix(1, 0, 0.07, 1, 2453.48, 785.78)" style="isolation: isolate;font-size: 16.47468376159668px;fill: #1e1e1c;font-family: Arial-BoldMT, Arial;font-weight: 700">264</text>
      <text transform="matrix(1, 0, 0.07, 1, 2468.46, 677.75)" style="isolation: isolate;font-size: 21.10279083251953px;fill: #1e1e1c;font-family: Arial-BoldMT, Arial;font-weight: 700">267</text>
      <text transform="matrix(1, 0, 0.07, 1, 2303.17, 582.28)" style="isolation: isolate;font-size: 21.10279083251953px;fill: #1e1e1c;font-family: Arial-BoldMT, Arial;font-weight: 700">268</text>
      <text transform="matrix(1, 0, 0.07, 1, 2455.06, 524.58)" style="isolation: isolate;font-size: 21.10279083251953px;fill: #1e1e1c;font-family: Arial-BoldMT, Arial;font-weight: 700">269</text>
      <text transform="matrix(1, 0, 0.07, 1, 2279.03, 268.6)" style="isolation: isolate;font-size: 21.10279083251953px;fill: #1e1e1c;font-family: Arial-BoldMT, Arial;font-weight: 700">270</text>
      <text transform="matrix(1, 0, 0.07, 1, 2433.09, 239.88)" style="isolation: isolate;font-size: 21.10279083251953px;fill: #1e1e1c;font-family: Arial-BoldMT, Arial;font-weight: 700">270б</text>
      <text transform="matrix(1, 0, 0.07, 1, 2418.83, 34.15)" style="isolation: isolate;font-size: 21.10279083251953px;fill: #1e1e1c;font-family: Arial-BoldMT, Arial;font-weight: 700">272</text>
      <g style="isolation: isolate">
        <text transform="matrix(1, 0, 0.07, 1, 2557.89, 830.86)" style="isolation: isolate;font-size: 17.140419006347656px;fill: #1e1e1c;font-family: Arial-BoldMT, Arial;font-weight: 700">П</text>
        <text transform="matrix(1, 0, 0.07, 1, 2570.18, 830.86)" style="isolation: isolate;font-size: 17.140419006347656px;fill: #1e1e1c;font-family: Arial-BoldMT, Arial;font-weight: 700;letter-spacing: -0.012964802229898499em">Р</text>
        <text transform="matrix(1, 0, 0.07, 1, 2581.36, 830.86)" style="isolation: isolate;font-size: 17.140419006347656px;fill: #1e1e1c;font-family: Arial-BoldMT, Arial;font-weight: 700;letter-spacing: -0.03798058803031939em">О</text>
        <text transform="matrix(1, 0, 0.07, 1, 2594.01, 830.86)" style="isolation: isolate;font-size: 17.140419006347656px;fill: #1e1e1c;font-family: Arial-BoldMT, Arial;font-weight: 700;letter-spacing: -0.024958672134209884em">Х</text>
        <text transform="matrix(1, 0, 0.07, 1, 2604.97, 830.86)" style="isolation: isolate;font-size: 17.140419006347656px;fill: #1e1e1c;font-family: Arial-BoldMT, Arial;font-weight: 700;letter-spacing: -0.013021915896109505em">О</text>
        <text transform="matrix(1, 0, 0.07, 1, 2618.04, 830.86)" style="isolation: isolate;font-size: 17.140419006347656px;fill: #1e1e1c;font-family: Arial-BoldMT, Arial;font-weight: 700">Д</text>
        <text transform="matrix(1, 0, 0.07, 1, 2563.14, 851.38)" style="isolation: isolate;font-size: 17.140419006347656px;fill: #1e1e1c;font-family: Arial-BoldMT, Arial;font-weight: 700">В </text>
        <text transform="matrix(1, 0, 0.07, 1, 2580.24, 851.38)" style="isolation: isolate;font-size: 17.140419006347656px;fill: #1e1e1c;font-family: Arial-BoldMT, Arial;font-weight: 700;letter-spacing: -0.038037701696530396em">У</text>
        <text transform="matrix(1, 0, 0.07, 1, 2590.22, 851.38)" style="isolation: isolate;font-size: 17.140419006347656px;fill: #1e1e1c;font-family: Arial-BoldMT, Arial;font-weight: 700">ЛК-1</text>
      </g>
      <text transform="matrix(1, 0, 0.07, 1, 2469.99, 1029.55)" style="isolation: isolate;font-size: 21.10279083251953px;fill: #1e1e1c;font-family: Arial-BoldMT, Arial;font-weight: 700">261</text>
    </g>
    <g id="Иконки-2" data-name="Иконки">
      <g id="Туалет">
        <path d="M2405,929.22a5.31,5.31,0,0,1-5.22-4.88,4.49,4.49,0,0,1,4.07-4.87l.47,0a5.33,5.33,0,0,1,5.22,4.89,4.5,4.5,0,0,1-4.1,4.87A3.27,3.27,0,0,1,2405,929.22Z" transform="translate(-70.96 -50.47)" style="fill: #010202"/>
        <path d="M2406.24,947.1a1.08,1.08,0,0,1-1-.63L2399,932.63a1,1,0,0,1,0-.92.93.93,0,0,1,.79-.43h10.61a1.11,1.11,0,0,1,.84.43,1,1,0,0,1,.18.92l-4.27,13.86A.9.9,0,0,1,2406.24,947.1Z" transform="translate(-70.96 -50.47)" style="fill: #010202"/>
        <path d="M2426,929.22a5.31,5.31,0,0,1-5.22-4.88,4.5,4.5,0,0,1,4.13-4.83l.41,0a5.33,5.33,0,0,1,5.22,4.89,4.5,4.5,0,0,1-4.15,4.83A2.54,2.54,0,0,1,2426,929.22Z" transform="translate(-70.96 -50.47)" style="fill: #010202"/>
        <path d="M2432.52,947.1h-10.61a1.06,1.06,0,0,1-.85-.42,1,1,0,0,1-.17-.92l4.34-13.84a.92.92,0,0,1,.88-.64,1.1,1.1,0,0,1,1,.64l6.27,13.84a1,1,0,0,1,0,.92A.93.93,0,0,1,2432.52,947.1Z" transform="translate(-70.96 -50.47)" style="fill: #010202"/>
        <path d="M2416.73,947.1a1.07,1.07,0,0,1-1.06-1l-1.8-25.61a.91.91,0,0,1,.84-1h.08a1.08,1.08,0,0,1,1.06,1l1.8,25.66a.91.91,0,0,1-.87,1Z" transform="translate(-70.96 -50.47)" style="fill: #010202"/>
      </g>
      <g>
        <path d="M2581.86,943.2h-5.6a.43.43,0,0,0-.43.43v0l.26,3.73a.43.43,0,0,1-.39.47h-6.11a.44.44,0,0,0-.44.44v0l.27,3.73a.42.42,0,0,1-.4.46h-5.64a.43.43,0,0,0-.43.43v0l.26,3.73a.43.43,0,0,1-.39.47h-5.18a.87.87,0,0,0-.87.87v.06l.2,2.8a1,1,0,0,0,1,.94h25.21a.85.85,0,0,0,.86-.85v-.09l-1.17-16.79A1,1,0,0,0,2581.86,943.2Z" transform="translate(-70.96 -50.47)" style="fill: #010202"/>
        <path d="M2582.79,937h0l-.11-.15-2.5-2.32a.48.48,0,0,0-.65,0,.46.46,0,0,0,0,.65l1.64,1.54h-8.67a.86.86,0,0,0-.87.85v.08l.26,3.74h-5.6a.86.86,0,0,0-.87.85v.08l.26,3.73h-5.5a.86.86,0,0,0-.87.85.27.27,0,0,0,0,.09l.19,2.8h-3.32a.43.43,0,0,0-.44.42v0a.5.5,0,0,0,.5.47h3.27a.86.86,0,0,0,.87-.86v-.07l-.2-2.8h5.6a.86.86,0,0,0,.87-.84V946l-.26-3.73h5.6a.84.84,0,0,0,.86-.83v-.1l-.26-3.74h8.68l-1.43,1.54a.42.42,0,0,0-.1.45.51.51,0,0,0,.36.34.43.43,0,0,0,.44-.13l2.17-2.33A.47.47,0,0,0,2582.79,937Z" transform="translate(-70.96 -50.47)" style="fill: #010202"/>
      </g>
      <g>
        <path d="M2396.92,824.92l1.66,23.77h8l-1.74-24.82h-7A1,1,0,0,0,2396.92,824.92Z" transform="translate(-70.96 -50.47)" style="fill: #010202"/>
        <path d="M2416.72,848.69l-1.66-23.77a1.17,1.17,0,0,0-1.13-1h-7l1.74,24.82Z" transform="translate(-70.96 -50.47)" style="fill: #010202"/>
        <path d="M2420,812.69H2390.3a2.91,2.91,0,0,0-3,2.85c0,.11,0,.21,0,.31l2.07,29.64a3.44,3.44,0,0,0,3.39,3.16h3.65l-1.66-23.77a2.93,2.93,0,0,1,2.67-3.15h16.27a3.46,3.46,0,0,1,3.38,3.16l1.66,23.77h3.66a2.92,2.92,0,0,0,3-2.89,2.44,2.44,0,0,0,0-.27l-2.07-29.68A3.47,3.47,0,0,0,2420,812.69Zm-12.12,6.68h-4.5a1.14,1.14,0,0,1-1.13-1,1,1,0,0,1,.94-1h4.56a1.14,1.14,0,0,1,1.12,1.06A1,1,0,0,1,2407.85,819.37Z" transform="translate(-70.96 -50.47)" style="fill: #010202"/>
      </g>
      <g>
        <path d="M2363,77.31h-5.6a.43.43,0,0,0-.43.43v0l.23,3.71a.43.43,0,0,1-.39.47s0,0-.05,0h-6.06a.43.43,0,0,0-.44.42v0l.27,3.74a.44.44,0,0,1-.42.46h-5.62a.43.43,0,0,0-.43.43v0l.26,3.73a.43.43,0,0,1-.39.47h-5.18a.87.87,0,0,0-.87.87v.06l.2,2.8a1,1,0,0,0,1,.93h25.2a.84.84,0,0,0,.86-.83V95L2364,78.22A1,1,0,0,0,2363,77.31Z" transform="translate(-70.96 -50.47)" style="fill: #010202"/>
        <path d="M2363.91,71.07h0l-.11-.16-2.5-2.33a.46.46,0,0,0-.64,0,.44.44,0,0,0,0,.63l0,0,1.64,1.54h-8.67a.86.86,0,0,0-.87.85v.08l.26,3.73h-5.6a.87.87,0,0,0-.87.87v.07l.27,3.73h-5.6a.86.86,0,0,0-.87.85V81l.19,2.8h-3.26a.44.44,0,0,0-.44.44v0a.5.5,0,0,0,.5.47h3.27a.86.86,0,0,0,.87-.86v-.08l-.2-2.8h5.6a.86.86,0,0,0,.87-.84v-.09l-.26-3.73h5.6a.85.85,0,0,0,.86-.85v-.09l-.26-3.73h8.68L2361,73.25a.42.42,0,0,0-.1.45.5.5,0,0,0,.36.33.41.41,0,0,0,.44-.12l2.17-2.34A.46.46,0,0,0,2363.91,71.07Z" transform="translate(-70.96 -50.47)" style="fill: #010202"/>
      </g>
    </g>
  </g>
  <g>
    <g id="Фундамент-3" data-name="Фундамент">
      <g id="Проход_к_актовому" data-name="Проход к актовому">
        <g>
          <polygon points="1690.06 864.71 1688.81 866.01 953.19 866.01 954.44 864.71 1690.06 864.71" style="fill: #818a61"/>
          <polygon points="954.44 864.71 953.19 866.01 945.54 755.64 946.79 754.35 954.44 864.71" style="fill: #818a61"/>
          <polygon points="1682.4 754.35 1690.06 864.71 954.44 864.71 946.79 754.35 1682.4 754.35" style="fill: #cfdb98"/>
        </g>
      </g>
      <g id="Холл">
        <g>
          <polygon points="1756.42 1093.28 1755.17 1094.57 922.08 1094.57 923.33 1093.28 1756.42 1093.28" style="fill: #818a61"/>
          <polygon points="923.33 1093.28 922.08 1094.57 903.81 831.13 905.06 829.83 923.33 1093.28" style="fill: #818a61"/>
          <polygon points="1738.15 829.83 1756.42 1093.28 923.33 1093.28 905.06 829.83 1738.15 829.83" style="fill: #cfdb98"/>
        </g>
      </g>
      <g id="Выступ">
        <g>
          <polygon points="1578.43 1164.28 1577.18 1165.57 1116.53 1165.57 1117.78 1164.28 1578.43 1164.28" style="fill: #818a61"/>
          <polygon points="1117.78 1164.28 1116.53 1165.57 1109.65 1066.37 1110.9 1065.08 1117.78 1164.28" style="fill: #818a61"/>
          <polygon points="1571.55 1065.08 1578.43 1164.28 1117.78 1164.28 1110.9 1065.08 1571.55 1065.08" style="fill: #cfdb98"/>
        </g>
      </g>
      <g id="Заплатка">
        <polygon points="1137.97 1036.22 1141.92 1093.28 1088.48 1093.28 1084.53 1036.22 1137.97 1036.22" style="fill: #cfdb98"/>
      </g>
    </g>
    <g id="Аудитории-3" data-name="Аудитории">
      <g id="MLOC-rooms-B">
        <g id="room-247">
          <g>
            <polygon points="1739.36 928.89 1733.11 935.36 1691.92 935.36 1698.17 928.89 1739.36 928.89" style="fill: #7a7a75"/>
            <polygon points="1698.17 928.89 1691.92 935.36 1685.56 843.57 1691.81 837.1 1698.17 928.89" style="fill: #7a7a75"/>
            <polygon points="1732.99 837.1 1739.36 928.89 1698.17 928.89 1691.81 837.1 1732.99 837.1" style="fill: #bcb9b2"/>
          </g>
        </g>
        <g id="room-246_" data-name="room-246 ">
          <g>
            <polygon points="1750 1071.88 1743.75 1078.35 1565 1078.35 1571.25 1071.88 1750 1071.88" style="fill: #7a7a75"/>
            <polygon points="1571.25 1071.88 1565 1078.35 1558.63 986.54 1564.88 980.07 1571.25 1071.88" style="fill: #7a7a75"/>
            <polygon points="1743.64 980.07 1750 1071.88 1571.25 1071.88 1564.88 980.07 1743.64 980.07" style="fill: #bcb9b2"/>
          </g>
        </g>
        <g id="room-243">
          <g>
            <polygon points="1566.72 1151.46 1560.47 1157.93 1516.94 1157.93 1523.19 1151.46 1566.72 1151.46" style="fill: #7a7a75"/>
            <polygon points="1523.19 1151.46 1516.94 1157.93 1508.64 1038.2 1514.89 1031.73 1523.19 1151.46" style="fill: #7a7a75"/>
            <polygon points="1558.42 1031.73 1566.72 1151.46 1523.19 1151.46 1514.89 1031.73 1558.42 1031.73" style="fill: #bcb9b2"/>
          </g>
        </g>
        <g id="room-242">
          <g>
            <polygon points="1557.93 1023.54 1551.68 1030.01 1508.16 1030.01 1514.41 1023.54 1557.93 1023.54" style="fill: #7a7a75"/>
            <polygon points="1514.41 1023.54 1508.16 1030.01 1505.14 986.48 1511.39 980.01 1514.41 1023.54" style="fill: #7a7a75"/>
            <polygon points="1554.92 980.01 1557.93 1023.54 1514.41 1023.54 1511.39 980.01 1554.92 980.01" style="fill: #bcb9b2"/>
          </g>
        </g>
        <g id="room-240">
          <g>
            <polygon points="1175.93 1151.46 1169.68 1157.93 1126.15 1157.93 1132.4 1151.46 1175.93 1151.46" style="fill: #7a7a75"/>
            <polygon points="1132.4 1151.46 1126.15 1157.93 1117.84 1038.2 1124.09 1031.73 1132.4 1151.46" style="fill: #7a7a75"/>
            <polygon points="1167.62 1031.73 1175.93 1151.46 1132.4 1151.46 1124.09 1031.73 1167.62 1031.73" style="fill: #bcb9b2"/>
          </g>
        </g>
        <g id="room-239">
          <g>
            <polygon points="1167.14 1023.54 1160.89 1030.01 1117.36 1030.01 1123.61 1023.54 1167.14 1023.54" style="fill: #7a7a75"/>
            <polygon points="1123.61 1023.54 1117.36 1030.01 1114.34 986.48 1120.59 980.01 1123.61 1023.54" style="fill: #7a7a75"/>
            <polygon points="1164.12 980.01 1167.14 1023.54 1123.61 1023.54 1120.59 980.01 1164.12 980.01" style="fill: #bcb9b2"/>
          </g>
        </g>
        <g id="room-236">
          <g>
            <polygon points="1116.27 1072.87 1110.02 1079.34 931.27 1079.34 937.52 1072.87 1116.27 1072.87" style="fill: #7a7a75"/>
            <polygon points="937.52 1072.87 931.27 1079.34 924.89 987.34 931.14 980.87 937.52 1072.87" style="fill: #7a7a75"/>
            <polygon points="1109.88 980.87 1116.27 1072.87 937.52 1072.87 931.14 980.87 1109.88 980.87" style="fill: #bcb9b2"/>
          </g>
        </g>
        <g id="elevator-245">
          <g>
            <polygon points="1688.05 928.89 1681.8 935.36 1592.71 935.36 1598.96 928.89 1688.05 928.89" style="fill: #3a702e"/>
            <polygon points="1598.96 928.89 1592.71 935.36 1586.35 843.57 1592.6 837.1 1598.96 928.89" style="fill: #3a702e"/>
            <polygon points="1681.69 837.1 1688.05 928.89 1598.96 928.89 1592.6 837.1 1681.69 837.1" style="fill: #5cad31"/>
          </g>
        </g>
        <g id="elevator-237">
          <g>
            <polygon points="1067.72 929.63 1061.47 936.1 972.38 936.1 978.63 929.63 1067.72 929.63" style="fill: #3a702e"/>
            <polygon points="978.63 929.63 972.38 936.1 965.96 843.58 972.21 837.11 978.63 929.63" style="fill: #3a702e"/>
            <polygon points="1061.3 837.11 1067.72 929.63 978.63 929.63 972.21 837.11 1061.3 837.11" style="fill: #5cad31"/>
          </g>
        </g>
        <g id="stairs-244">
          <g>
            <polygon points="1679.3 822.29 1673.05 828.76 1547.82 828.76 1554.07 822.29 1679.3 822.29" style="fill: #955f21"/>
            <polygon points="1554.07 822.29 1547.82 828.76 1543.51 766.55 1549.76 760.07 1554.07 822.29" style="fill: #955f21"/>
            <polygon points="1674.98 760.07 1679.3 822.29 1554.07 822.29 1549.76 760.07 1674.98 760.07" style="fill: #ed9337"/>
          </g>
        </g>
        <g id="stairs-238">
          <g>
            <polygon points="1092.26 822.29 1086.01 828.76 965.45 828.76 971.7 822.29 1092.26 822.29" style="fill: #955f21"/>
            <polygon points="971.7 822.29 965.45 828.76 961.13 766.55 967.38 760.07 971.7 822.29" style="fill: #955f21"/>
            <polygon points="1087.94 760.07 1092.26 822.29 971.7 822.29 967.38 760.07 1087.94 760.07" style="fill: #ed9337"/>
          </g>
        </g>
      </g>
    </g>
    <g id="Стены-2" data-name="Стены">
      <g>
        <polygon points="1535.26 823.56 1529.01 830.03 1103.04 830.03 1109.29 823.56 1535.26 823.56" style="fill: #7a7a75"/>
        <polygon points="1109.29 823.56 1103.04 830.03 1102.91 828.1 1109.16 821.62 1109.29 823.56" style="fill: #7a7a75"/>
        <polygon points="1535.12 821.62 1535.26 823.56 1109.29 823.56 1109.16 821.62 1535.12 821.62" style="fill: #bcb9b2"/>
      </g>
      <g>
        <polygon points="964.21 839.02 957.96 845.49 907.79 845.49 914.03 839.02 964.21 839.02" style="fill: #7a7a75"/>
        <polygon points="914.03 839.02 907.79 845.49 907.65 843.55 913.9 837.08 914.03 839.02" style="fill: #7a7a75"/>
        <polygon points="964.08 837.08 964.21 839.02 914.03 839.02 913.9 837.08 964.08 837.08" style="fill: #bcb9b2"/>
      </g>
      <g>
        <polygon points="1511.4 1151.68 1505.15 1158.16 1182.44 1158.16 1188.69 1151.68 1511.4 1151.68" style="fill: #7a7a75"/>
        <polygon points="1188.69 1151.68 1182.44 1158.16 1182.31 1156.23 1188.56 1149.75 1188.69 1151.68" style="fill: #7a7a75"/>
        <polygon points="1511.27 1149.75 1511.4 1151.68 1188.69 1151.68 1188.56 1149.75 1511.27 1149.75" style="fill: #bcb9b2"/>
      </g>
    </g>
    <g id="Текст">
      <text transform="matrix(1, 0, 0.07, 1, 1009.3, 1030.26)" style="isolation: isolate;font-size: 21.10150909423828px;fill: #1e1e1c;font-family: Arial-BoldMT, Arial;font-weight: 700">49</text>
      <text transform="matrix(1, 0, 0.07, 1, 1705.1, 886.49)" style="isolation: isolate;font-size: 21.10150909423828px;fill: #1e1e1c;font-family: Arial-BoldMT, Arial;font-weight: 700">60</text>
      <text transform="matrix(1, 0, 0.07, 1, 1645.98, 1030.26)" style="isolation: isolate;font-size: 21.10150909423828px;fill: #1e1e1c;font-family: Arial-BoldMT, Arial;font-weight: 700">59</text>
      <path d="M1081.06,928l1.67,23.77h8L1089,927h-7A1,1,0,0,0,1081.06,928Z" transform="translate(-70.96 -50.47)" style="fill: #010202"/>
      <path d="M1100.87,951.78,1099.19,928a1.13,1.13,0,0,0-1.12-1h-7l1.73,24.82Z" transform="translate(-70.96 -50.47)" style="fill: #010202"/>
      <path d="M1104.11,915.78h-29.67a2.92,2.92,0,0,0-3,2.89,2.44,2.44,0,0,0,0,.27l2.07,29.67a3.48,3.48,0,0,0,3.39,3.17h3.66L1079,928a2.92,2.92,0,0,1,2.67-3.15h16.28a3.45,3.45,0,0,1,3.38,3.16l1.67,23.77h3.65a2.91,2.91,0,0,0,3-2.87c0-.1,0-.2,0-.3L1107.47,919A3.45,3.45,0,0,0,1104.11,915.78ZM1092,922.46h-4.5a1.14,1.14,0,0,1-1.13-1.06,1,1,0,0,1,1-1h4.5a1.15,1.15,0,0,1,1.13,1,1,1,0,0,1-.94,1.05Z" transform="translate(-70.96 -50.47)" style="fill: #010202"/>
      <path d="M1702.09,928l1.66,23.77h8L1710,927h-7A1,1,0,0,0,1702.09,928Z" transform="translate(-70.96 -50.47)" style="fill: #010202"/>
      <path d="M1721.89,951.78l-1.7-23.76a1.14,1.14,0,0,0-1.13-1h-7l1.73,24.82Z" transform="translate(-70.96 -50.47)" style="fill: #010202"/>
      <path d="M1725.19,915.78h-29.72a2.91,2.91,0,0,0-3,2.88,2.72,2.72,0,0,0,0,.28l2.08,29.67a3.45,3.45,0,0,0,3.38,3.17h3.66L1700,928a2.92,2.92,0,0,1,2.67-3.15h16.27a3.46,3.46,0,0,1,3.39,3.16l1.66,23.77h3.65a2.92,2.92,0,0,0,3-2.88,2.71,2.71,0,0,0,0-.29L1728.49,919A3.45,3.45,0,0,0,1725.19,915.78Zm-12.12,6.68h-4.5a1.16,1.16,0,0,1-1.13-1.06,1,1,0,0,1,1-1h4.5a1.15,1.15,0,0,1,1.13,1,1,1,0,0,1-.94,1.06h-.06Z" transform="translate(-70.96 -50.47)" style="fill: #010202"/>
      <path d="M1112.86,835.7h-5.6a.42.42,0,0,0-.43.42v0l.26,3.73a.42.42,0,0,1-.38.45h-6.12a.42.42,0,0,0-.43.42v.05l.26,3.73a.43.43,0,0,1-.39.46h-5.65a.42.42,0,0,0-.43.42v0l.26,3.73a.43.43,0,0,1-.39.46h-5.18a.83.83,0,0,0-.86.83v.1l.19,2.8a1,1,0,0,0,1,.93h25.22a.87.87,0,0,0,.87-.85v-.08l-1.18-16.8A1,1,0,0,0,1112.86,835.7Z" transform="translate(-70.96 -50.47)" style="fill: #010202"/>
      <path d="M1113.79,829.45h0a.58.58,0,0,0-.11-.15l-2.49-2.28a.46.46,0,0,0-.65,0,.47.47,0,0,0,0,.66l1.65,1.49h-8.67a.85.85,0,0,0-.87.84v.09l.26,3.73h-5.6a.85.85,0,0,0-.86.85v.09l.26,3.73h-5.6a.85.85,0,0,0-.87.84v.09l.2,2.8h-3.25a.42.42,0,0,0-.43.42v.05a.49.49,0,0,0,.49.46h3.27a.85.85,0,0,0,.87-.83v-.1l-.2-2.8h5.6a.87.87,0,0,0,.87-.85v-.08l-.26-3.73h5.6a.87.87,0,0,0,.87-.87v-.07l-.26-3.73h8.67l-1.43,1.54a.46.46,0,0,0-.1.45.54.54,0,0,0,.36.33.45.45,0,0,0,.45-.12l2.17-2.34A.46.46,0,0,0,1113.79,829.45Z" transform="translate(-70.96 -50.47)" style="fill: #010202"/>
      <path d="M1697.75,835.26h-5.56a.44.44,0,0,0-.44.44v0l.26,3.73a.43.43,0,0,1-.39.46h-6.11a.42.42,0,0,0-.43.42v0l.26,3.73a.42.42,0,0,1-.38.45h-5.65a.44.44,0,0,0-.44.44v0l.27,3.73a.44.44,0,0,1-.41.47h-5.16a.85.85,0,0,0-.87.84v.09l.2,2.8a1,1,0,0,0,1,.94h25.2a.86.86,0,0,0,.87-.85V853l-1.17-16.79A1,1,0,0,0,1697.75,835.26Z" transform="translate(-70.96 -50.47)" style="fill: #010202"/>
      <path d="M1698.67,829h0a.28.28,0,0,0-.11-.15l-2.49-2.34a.47.47,0,0,0-.66,0,.48.48,0,0,0,0,.65l1.65,1.54h-8.68a.83.83,0,0,0-.86.83v.1l.26,3.74h-5.59a.83.83,0,0,0-.87.82v.11l.26,3.73H1676a.87.87,0,0,0-.79.94v0l.2,2.8h-3.27a.41.41,0,0,0-.43.4v.06a.52.52,0,0,0,.5.47h3.26a.87.87,0,0,0,.87-.85v-.08l-.19-2.8h5.6a.86.86,0,0,0,.86-.86v-.08l-.26-3.73h5.6a.87.87,0,0,0,.87-.85v-.08l-.26-3.74h8.65l-1.43,1.54a.43.43,0,0,0-.09.45.52.52,0,0,0,.35.34.47.47,0,0,0,.45-.13l2.17-2.33A.45.45,0,0,0,1698.67,829Z" transform="translate(-70.96 -50.47)" style="fill: #010202"/>
    </g>
  </g>
  <g>
    <g id="Фундамент-4" data-name="Фундамент">
      <g id="Горизонтальный">
        <g>
          <polygon points="924.87 1093.26 923.62 1094.56 261.46 1094.56 262.71 1093.26 924.87 1093.26" style="fill: #818a61"/>
          <polygon points="262.71 1093.26 261.46 1094.56 243.18 831.01 244.43 829.72 262.71 1093.26" style="fill: #818a61"/>
          <polygon points="906.59 829.72 924.87 1093.26 262.71 1093.26 244.43 829.72 906.59 829.72" style="fill: #cfdb98"/>
        </g>
      </g>
      <g id="Вертикальный">
        <g>
          <polygon points="350.89 1035.69 349.64 1036.99 66.56 1036.99 67.81 1035.69 350.89 1035.69" style="fill: #818a61"/>
          <polygon points="67.81 1035.69 66.56 1036.99 0 77.18 1.25 75.89 67.81 1035.69" style="fill: #818a61"/>
          <polygon points="284.33 75.89 350.89 1035.69 67.81 1035.69 1.25 75.89 284.33 75.89" style="fill: #cfdb98"/>
        </g>
      </g>
      <g id="Под_30-2" data-name="Под 30">
        <g>
          <polygon points="286.06 1117.65 285.56 1118.17 25.16 1118.17 25.66 1117.65 286.06 1117.65" style="fill: #818a61"/>
          <polygon points="25.66 1117.65 25.16 1118.17 15.31 976.14 15.81 975.62 25.66 1117.65" style="fill: #818a61"/>
          <polygon points="276.21 975.62 286.06 1117.65 25.66 1117.65 15.81 975.62 276.21 975.62" style="fill: #cfdb98"/>
        </g>
      </g>
      <g id="Заплатка-2" data-name="Заплатка">
        <polygon points="364.6 978.66 370 1056.44 253.78 1056.44 248.39 978.66 364.6 978.66" style="fill: #cfdb98"/>
      </g>
    </g>
    <g id="Аудитории-4" data-name="Аудитории">
      <g id="MLOC-rooms-A-1-row">
        <g id="room-233">
          <g>
            <polygon points="920.6 1072.76 914.35 1079.23 814.91 1079.23 821.16 1072.76 920.6 1072.76" style="fill: #7a7a75"/>
            <polygon points="821.16 1072.76 814.91 1079.23 808.55 987.42 814.8 980.95 821.16 1072.76" style="fill: #7a7a75"/>
            <polygon points="914.23 980.95 920.6 1072.76 821.16 1072.76 814.8 980.95 914.23 980.95" style="fill: #bcb9b2"/>
          </g>
        </g>
        <g id="room-232">
          <g>
            <polygon points="809.06 1072.76 802.81 1079.23 749.68 1079.23 755.93 1072.76 809.06 1072.76" style="fill: #7a7a75"/>
            <polygon points="755.93 1072.76 749.68 1079.23 743.32 987.42 749.57 980.95 755.93 1072.76" style="fill: #7a7a75"/>
            <polygon points="802.69 980.95 809.06 1072.76 755.93 1072.76 749.57 980.95 802.69 980.95" style="fill: #bcb9b2"/>
          </g>
        </g>
        <g id="room-230">
          <g>
            <polygon points="744.16 1072.23 737.91 1078.7 657.48 1078.7 663.73 1072.23 744.16 1072.23" style="fill: #7a7a75"/>
            <polygon points="663.73 1072.23 657.48 1078.7 651.12 986.89 657.37 980.42 663.73 1072.23" style="fill: #7a7a75"/>
            <polygon points="737.8 980.42 744.16 1072.23 663.73 1072.23 657.37 980.42 737.8 980.42" style="fill: #bcb9b2"/>
          </g>
        </g>
        <g id="room-227">
          <g>
            <polygon points="650.95 1072.76 644.7 1079.23 533.78 1079.23 540.03 1072.76 650.95 1072.76" style="fill: #7a7a75"/>
            <polygon points="540.03 1072.76 533.78 1079.23 527.42 987.42 533.67 980.95 540.03 1072.76" style="fill: #7a7a75"/>
            <polygon points="644.58 980.95 650.95 1072.76 540.03 1072.76 533.67 980.95 644.58 980.95" style="fill: #bcb9b2"/>
          </g>
        </g>
        <g id="room-225">
          <g>
            <polygon points="525.84 1072.76 519.59 1079.23 359.38 1079.23 365.63 1072.76 525.84 1072.76" style="fill: #7a7a75"/>
            <polygon points="365.63 1072.76 359.38 1079.23 353.01 987.42 359.26 980.95 365.63 1072.76" style="fill: #7a7a75"/>
            <polygon points="519.47 980.95 525.84 1072.76 365.63 1072.76 359.26 980.95 519.47 980.95" style="fill: #bcb9b2"/>
          </g>
        </g>
        <g id="room-224">
          <g>
            <polygon points="352.46 1072.76 346.21 1079.23 293.08 1079.23 299.33 1072.76 352.46 1072.76" style="fill: #7a7a75"/>
            <polygon points="299.33 1072.76 293.08 1079.23 286.72 987.42 292.97 980.95 299.33 1072.76" style="fill: #7a7a75"/>
            <polygon points="346.09 980.95 352.46 1072.76 299.33 1072.76 292.97 980.95 346.09 980.95" style="fill: #bcb9b2"/>
          </g>
        </g>
        <g id="room-223">
          <g>
            <polygon points="282.18 1097.54 275.93 1104.01 38.01 1104.01 44.26 1097.54 282.18 1097.54" style="fill: #7a7a75"/>
            <polygon points="44.26 1097.54 38.01 1104.01 29.95 987.85 36.2 981.38 44.26 1097.54" style="fill: #7a7a75"/>
            <polygon points="274.12 981.38 282.18 1097.54 44.26 1097.54 36.2 981.38 274.12 981.38" style="fill: #bcb9b2"/>
          </g>
        </g>
      </g>
      <g id="MLOC-rooms-A-2-row">
        <g id="room-234">
          <g>
            <polygon points="910.21 929.16 904.37 935.63 802.49 935.63 808.34 929.16 910.21 929.16" style="fill: #7a7a75"/>
            <polygon points="808.34 929.16 802.49 935.63 796.54 843.82 802.38 837.35 808.34 929.16" style="fill: #7a7a75"/>
            <polygon points="904.26 837.35 910.21 929.16 808.34 929.16 802.38 837.35 904.26 837.35" style="fill: #bcb9b2"/>
          </g>
        </g>
        <g id="room-231">
          <g>
            <polygon points="795.6 929.16 789.75 935.63 687.88 935.63 693.72 929.16 795.6 929.16" style="fill: #7a7a75"/>
            <polygon points="693.72 929.16 687.88 935.63 681.93 843.82 687.77 837.35 693.72 929.16" style="fill: #7a7a75"/>
            <polygon points="789.64 837.35 795.6 929.16 693.72 929.16 687.77 837.35 789.64 837.35" style="fill: #bcb9b2"/>
          </g>
        </g>
        <g id="room-229">
          <g>
            <polygon points="680.98 929.16 675.14 935.63 573.25 935.63 579.1 929.16 680.98 929.16" style="fill: #7a7a75"/>
            <polygon points="579.1 929.16 573.25 935.63 567.3 843.82 573.14 837.35 579.1 929.16" style="fill: #7a7a75"/>
            <polygon points="675.03 837.35 680.98 929.16 579.1 929.16 573.14 837.35 675.03 837.35" style="fill: #bcb9b2"/>
          </g>
        </g>
        <g id="room-228">
          <g>
            <polygon points="566.37 929.47 560.52 935.94 458.64 935.94 464.48 929.47 566.37 929.47" style="fill: #7a7a75"/>
            <polygon points="464.48 929.47 458.64 935.94 452.69 844.13 458.53 837.66 464.48 929.47" style="fill: #7a7a75"/>
            <polygon points="560.41 837.66 566.37 929.47 464.48 929.47 458.53 837.66 560.41 837.66" style="fill: #bcb9b2"/>
          </g>
        </g>
        <g id="room-226">
          <g>
            <polygon points="451.75 929.5 445.91 935.97 344.02 935.97 349.87 929.5 451.75 929.5" style="fill: #7a7a75"/>
            <polygon points="349.87 929.5 344.02 935.97 338.07 844.16 343.91 837.69 349.87 929.5" style="fill: #7a7a75"/>
            <polygon points="445.8 837.69 451.75 929.5 349.87 929.5 343.91 837.69 445.8 837.69" style="fill: #bcb9b2"/>
          </g>
        </g>
        <g id="toilet-217">
          <g>
            <polygon points="336.25 929.34 330 935.81 235.42 935.81 241.67 929.34 336.25 929.34" style="fill: #3b7b90"/>
            <polygon points="241.67 929.34 235.42 935.81 229.05 844 235.3 837.53 241.67 929.34" style="fill: #3b7b90"/>
            <polygon points="329.88 837.53 336.25 929.34 241.67 929.34 235.3 837.53 329.88 837.53" style="fill: #5abfe6"/>
          </g>
        </g>
      </g>
      <g id="MLOC-rooms-A-2-col">
        <g id="elevator-215">
          <g>
            <polygon points="328.29 823.01 322.04 829.48 227.45 829.48 233.7 823.01 328.29 823.01" style="fill: #3a702e"/>
            <polygon points="233.7 823.01 227.45 829.48 221.68 746.22 227.93 739.75 233.7 823.01" style="fill: #3a702e"/>
            <polygon points="322.51 739.75 328.29 823.01 233.7 823.01 227.93 739.75 322.51 739.75" style="fill: #5cad31"/>
          </g>
        </g>
        <g id="room-213">
          <g>
            <polygon points="321.36 725.71 315.11 732.18 220.53 732.18 226.78 725.71 321.36 725.71" style="fill: #7a7a75"/>
            <polygon points="226.78 725.71 220.53 732.18 216.09 668.28 222.34 661.81 226.78 725.71" style="fill: #7a7a75"/>
            <polygon points="316.93 661.81 321.36 725.71 226.78 725.71 222.34 661.81 316.93 661.81" style="fill: #bcb9b2"/>
          </g>
        </g>
        <g id="room-210">
          <g>
            <polygon points="315.15 646.42 308.9 652.89 214.32 652.89 220.57 646.42 315.15 646.42" style="fill: #7a7a75"/>
            <polygon points="220.57 646.42 214.32 652.89 203.28 493.64 209.53 487.17 220.57 646.42" style="fill: #7a7a75"/>
            <polygon points="304.11 487.17 315.15 646.42 220.57 646.42 209.53 487.17 304.11 487.17" style="fill: #bcb9b2"/>
          </g>
        </g>
        <g id="room-208">
          <g>
            <polygon points="303.22 470.82 296.97 477.29 202.38 477.29 208.63 470.82 303.22 470.82" style="fill: #7a7a75"/>
            <polygon points="208.63 470.82 202.38 477.29 194.18 359 200.43 352.53 208.63 470.82" style="fill: #7a7a75"/>
            <polygon points="295.02 352.53 303.22 470.82 208.63 470.82 200.43 352.53 295.02 352.53" style="fill: #bcb9b2"/>
          </g>
        </g>
        <g id="room-205">
          <g>
            <polygon points="294.3 335.72 288.05 342.19 193.47 342.19 199.72 335.72 294.3 335.72" style="fill: #7a7a75"/>
            <polygon points="199.72 335.72 193.47 342.19 180.58 156.37 186.83 149.9 199.72 335.72" style="fill: #7a7a75"/>
            <polygon points="281.42 149.9 294.3 335.72 199.72 335.72 186.83 149.9 281.42 149.9" style="fill: #bcb9b2"/>
          </g>
        </g>
        <g id="room-202">
          <g>
            <polygon points="280.95 137.19 274.7 143.66 180.12 143.66 186.37 137.19 280.95 137.19" style="fill: #7a7a75"/>
            <polygon points="186.37 137.19 180.12 143.66 176.4 90.05 182.65 83.58 186.37 137.19" style="fill: #7a7a75"/>
            <polygon points="277.24 83.58 280.95 137.19 186.37 137.19 182.65 83.58 277.24 83.58" style="fill: #bcb9b2"/>
          </g>
        </g>
      </g>
      <g id="MLOC-rooms-A-1-col">
        <g id="stairs-221">
          <g>
            <polygon points="175.55 929.9 169.3 936.37 74.71 936.37 80.96 929.9 175.55 929.9" style="fill: #955f21"/>
            <polygon points="80.96 929.9 74.71 936.37 70.56 876.56 76.81 870.09 80.96 929.9" style="fill: #955f21"/>
            <polygon points="171.41 870.09 175.55 929.9 80.96 929.9 76.81 870.09 171.41 870.09" style="fill: #ed9337"/>
          </g>
        </g>
        <g id="room-214">
          <g>
            <polygon points="167.37 816.81 161.12 823.29 66.53 823.29 72.78 816.81 167.37 816.81" style="fill: #7a7a75"/>
            <polygon points="72.78 816.81 66.53 823.29 59.97 728.7 66.22 722.23 72.78 816.81" style="fill: #7a7a75"/>
            <polygon points="160.81 722.23 167.37 816.81 72.78 816.81 66.22 722.23 160.81 722.23" style="fill: #bcb9b2"/>
          </g>
        </g>
        <g id="room-212">
          <g>
            <polygon points="159.57 708.87 153.32 715.34 58.73 715.34 64.98 708.87 159.57 708.87" style="fill: #7a7a75"/>
            <polygon points="64.98 708.87 58.73 715.34 54.99 661.32 61.24 654.85 64.98 708.87" style="fill: #7a7a75"/>
            <polygon points="155.82 654.85 159.57 708.87 64.98 708.87 61.24 654.85 155.82 654.85" style="fill: #bcb9b2"/>
          </g>
        </g>
        <g id="room-211">
          <g>
            <polygon points="154.64 640.45 148.39 646.92 53.81 646.92 60.06 640.45 154.64 640.45" style="fill: #7a7a75"/>
            <polygon points="60.06 640.45 53.81 646.92 43.13 492.98 49.38 486.51 60.06 640.45" style="fill: #7a7a75"/>
            <polygon points="143.97 486.51 154.64 640.45 60.06 640.45 49.38 486.51 143.97 486.51" style="fill: #bcb9b2"/>
          </g>
        </g>
        <g id="room-207">
          <g>
            <polygon points="142.9 472.03 136.65 478.5 42.06 478.5 48.31 472.03 142.9 472.03" style="fill: #7a7a75"/>
            <polygon points="48.31 472.03 42.06 478.5 38.08 421.1 44.33 414.63 48.31 472.03" style="fill: #7a7a75"/>
            <polygon points="138.91 414.63 142.9 472.03 48.31 472.03 44.33 414.63 138.91 414.63" style="fill: #bcb9b2"/>
          </g>
        </g>
        <g id="room-206">
          <g>
            <polygon points="137.37 401.93 131.12 408.4 36.54 408.4 42.79 401.93 137.37 401.93" style="fill: #7a7a75"/>
            <polygon points="42.79 401.93 36.54 408.4 32.82 354.79 39.07 348.32 42.79 401.93" style="fill: #7a7a75"/>
            <polygon points="133.66 348.32 137.37 401.93 42.79 401.93 39.07 348.32 133.66 348.32" style="fill: #bcb9b2"/>
          </g>
        </g>
        <g id="room-204">
          <g>
            <polygon points="132.2 334.56 125.95 341.03 31.37 341.03 37.62 334.56 132.2 334.56" style="fill: #7a7a75"/>
            <polygon points="37.62 334.56 31.37 341.03 23.22 223.51 29.47 217.04 37.62 334.56" style="fill: #7a7a75"/>
            <polygon points="124.05 217.04 132.2 334.56 37.62 334.56 29.47 217.04 124.05 217.04" style="fill: #bcb9b2"/>
          </g>
        </g>
        <g id="stairs-201">
          <g>
            <polygon points="118.88 137.19 112.63 143.66 18.04 143.66 24.29 137.19 118.88 137.19" style="fill: #955f21"/>
            <polygon points="24.29 137.19 18.04 143.66 14.32 90.05 20.57 83.58 24.29 137.19" style="fill: #955f21"/>
            <polygon points="115.16 83.58 118.88 137.19 24.29 137.19 20.57 83.58 115.16 83.58" style="fill: #ed9337"/>
          </g>
        </g>
      </g>
    </g>
    <g id="Стены-3" data-name="Стены">
      <g>
        <polygon points="85.95 971.9 79.7 978.38 77.77 978.38 84.02 971.9 85.95 971.9" style="fill: #7a7a75"/>
        <polygon points="84.02 971.9 77.77 978.38 75.43 944.57 81.68 938.1 84.02 971.9" style="fill: #7a7a75"/>
        <polygon points="83.61 938.1 85.95 971.9 84.02 971.9 81.68 938.1 83.61 938.1" style="fill: #bcb9b2"/>
      </g>
      <g>
        <polygon points="30.87 208.63 24.62 215.1 22.69 215.1 28.94 208.63 30.87 208.63" style="fill: #7a7a75"/>
        <polygon points="28.94 208.63 22.69 215.1 18.44 153.85 24.69 147.38 28.94 208.63" style="fill: #7a7a75"/>
        <polygon points="26.62 147.38 30.87 208.63 28.94 208.63 24.69 147.38 26.62 147.38" style="fill: #bcb9b2"/>
      </g>
      <g>
        <polygon points="169.04 85.65 162.79 92.12 121.83 92.12 128.08 85.65 169.04 85.65" style="fill: #7a7a75"/>
        <polygon points="128.08 85.65 121.83 92.12 121.69 90.14 127.94 83.67 128.08 85.65" style="fill: #7a7a75"/>
        <polygon points="168.9 83.67 169.04 85.65 128.08 85.65 127.94 83.67 168.9 83.67" style="fill: #bcb9b2"/>
      </g>
      <g>
        <polygon points="77.7 862.81 71.45 869.28 70.01 869.28 76.26 862.81 77.7 862.81" style="fill: #7a7a75"/>
        <polygon points="76.26 862.81 70.01 869.28 67.33 830.64 73.58 824.16 76.26 862.81" style="fill: #7a7a75"/>
        <polygon points="75.02 824.16 77.7 862.81 76.26 862.81 73.58 824.16 75.02 824.16" style="fill: #bcb9b2"/>
      </g>
    </g>
    <g id="Текст-2" data-name="Текст">
      <text transform="matrix(1, 0, 0.07, 1, 136.48, 1031.56)" style="isolation: isolate;font-size: 21.10279083251953px;fill: #1e1e1c;font-family: Arial-BoldMT, Arial;font-weight: 700">223</text>
      <text transform="matrix(1, 0, 0.07, 1, 379.48, 886.64)" style="isolation: isolate;font-size: 21.10279083251953px;fill: #1e1e1c;font-family: Arial-BoldMT, Arial;font-weight: 700">226</text>
      <text transform="matrix(1, 0, 0.07, 1, 306.43, 1030.06)" style="isolation: isolate;font-size: 21.10279083251953px;fill: #1e1e1c;font-family: Arial-BoldMT, Arial;font-weight: 700">224</text>
      <text transform="matrix(1, 0, 0.07, 1, 424.21, 1030.06)" style="isolation: isolate;font-size: 21.10279083251953px;fill: #1e1e1c;font-family: Arial-BoldMT, Arial;font-weight: 700">225</text>
      <text transform="matrix(1, 0, 0.07, 1, 576.79, 1030.06)" style="isolation: isolate;font-size: 21.10279083251953px;fill: #1e1e1c;font-family: Arial-BoldMT, Arial;font-weight: 700">227</text>
      <text transform="matrix(1, 0, 0.07, 1, 685.68, 1029.16)" style="isolation: isolate;font-size: 21.10279083251953px;fill: #1e1e1c;font-family: Arial-BoldMT, Arial;font-weight: 700">230</text>
      <text transform="matrix(1, 0, 0.07, 1, 763.01, 1030.06)" style="isolation: isolate;font-size: 21.10279083251953px;fill: #1e1e1c;font-family: Arial-BoldMT, Arial;font-weight: 700">232</text>
      <text transform="matrix(1, 0, 0.07, 1, 849.79, 1030.06)" style="isolation: isolate;font-size: 21.10279083251953px;fill: #1e1e1c;font-family: Arial-BoldMT, Arial;font-weight: 700">233</text>
      <text transform="matrix(1, 0, 0.07, 1, 494.86, 886.79)" style="isolation: isolate;font-size: 21.10279083251953px;fill: #1e1e1c;font-family: Arial-BoldMT, Arial;font-weight: 700">228</text>
      <text transform="matrix(1, 0, 0.07, 1, 608.53, 886.79)" style="isolation: isolate;font-size: 21.10279083251953px;fill: #1e1e1c;font-family: Arial-BoldMT, Arial;font-weight: 700">229</text>
      <text transform="matrix(1, 0, 0.07, 1, 725.25, 886.79)" style="isolation: isolate;font-size: 21.10279083251953px;fill: #1e1e1c;font-family: Arial-BoldMT, Arial;font-weight: 700">231</text>
      <text transform="matrix(1, 0, 0.07, 1, 842.07, 886.64)" style="isolation: isolate;font-size: 21.10279083251953px;fill: #1e1e1c;font-family: Arial-BoldMT, Arial;font-weight: 700">234</text>
      <text transform="matrix(1, 0, 0.07, 1, 99.91, 776.18)" style="isolation: isolate;font-size: 21.10279083251953px;fill: #1e1e1c;font-family: Arial-BoldMT, Arial;font-weight: 700">214</text>
      <text transform="matrix(1, 0, 0.07, 1, 92.67, 690.21)" style="isolation: isolate;font-size: 21.10279083251953px;fill: #1e1e1c;font-family: Arial-BoldMT, Arial;font-weight: 700">212</text>
      <g style="isolation: isolate">
        <text transform="matrix(1, 0, 0.07, 1, 84.66, 569.01)" style="isolation: isolate;font-size: 21.10279083251953px;fill: #1e1e1c;font-family: Arial-BoldMT, Arial;font-weight: 700">2</text>
        <text transform="matrix(1, 0, 0.07, 1, 96.37, 569.01)" style="isolation: isolate;font-size: 21.10279083251953px;fill: #1e1e1c;font-family: Arial-BoldMT, Arial;font-weight: 700;letter-spacing: -0.0549949912578971em">1</text>
        <text transform="matrix(1, 0, 0.07, 1, 106.91, 569.01)" style="isolation: isolate;font-size: 21.10279083251953px;fill: #1e1e1c;font-family: Arial-BoldMT, Arial;font-weight: 700">1</text>
      </g>
      <text transform="matrix(1, 0, 0.07, 1, 76.38, 453.61)" style="isolation: isolate;font-size: 21.10279083251953px;fill: #1e1e1c;font-family: Arial-BoldMT, Arial;font-weight: 700">207</text>
      <text transform="matrix(1, 0, 0.07, 1, 69.7, 382.8)" style="isolation: isolate;font-size: 21.10279083251953px;fill: #1e1e1c;font-family: Arial-BoldMT, Arial;font-weight: 700">206</text>
      <text transform="matrix(1, 0, 0.07, 1, 64.56, 281.14)" style="isolation: isolate;font-size: 21.10279083251953px;fill: #1e1e1c;font-family: Arial-BoldMT, Arial;font-weight: 700">204</text>
      <text transform="matrix(1, 0, 0.07, 1, 213.85, 117.62)" style="isolation: isolate;font-size: 21.10279083251953px;fill: #1e1e1c;font-family: Arial-BoldMT, Arial;font-weight: 700">202</text>
      <text transform="matrix(1, 0, 0.07, 1, 222.79, 246.3)" style="isolation: isolate;font-size: 21.10279083251953px;fill: #1e1e1c;font-family: Arial-BoldMT, Arial;font-weight: 700">205</text>
      <text transform="matrix(1, 0, 0.07, 1, 235.47, 416.82)" style="isolation: isolate;font-size: 21.10279083251953px;fill: #1e1e1c;font-family: Arial-BoldMT, Arial;font-weight: 700">208</text>
      <text transform="matrix(1, 0, 0.07, 1, 245.73, 569.18)" style="isolation: isolate;font-size: 21.10279083251953px;fill: #1e1e1c;font-family: Arial-BoldMT, Arial;font-weight: 700">210</text>
      <text transform="matrix(1, 0, 0.07, 1, 256.81, 699.61)" style="isolation: isolate;font-size: 21.10279083251953px;fill: #1e1e1c;font-family: Arial-BoldMT, Arial;font-weight: 700">213</text>
    </g>
    <g id="Иконки-3" data-name="Иконки">
      <g id="Туалет-2" data-name="Туалет">
        <path d="M346.18,929.17a5.32,5.32,0,0,1-5.22-4.88,4.5,4.5,0,0,1,4.09-4.88,3.38,3.38,0,0,1,.45,0,5.31,5.31,0,0,1,5.22,4.89,4.5,4.5,0,0,1-4.11,4.86Z" transform="translate(-70.96 -50.47)" style="fill: #010202"/>
        <path d="M347.43,947.05a1.09,1.09,0,0,1-1-.63l-6.27-13.84a1,1,0,0,1,0-.92.89.89,0,0,1,.79-.43h10.61a1,1,0,0,1,.84.43,1,1,0,0,1,.18.92l-4.27,13.8A.92.92,0,0,1,347.43,947.05Z" transform="translate(-70.96 -50.47)" style="fill: #010202"/>
        <path d="M367.15,929.17a5.32,5.32,0,0,1-5.22-4.88,4.5,4.5,0,0,1,4.09-4.88,3.38,3.38,0,0,1,.45,0,5.31,5.31,0,0,1,5.22,4.89,4.5,4.5,0,0,1-4.09,4.86Z" transform="translate(-70.96 -50.47)" style="fill: #010202"/>
        <path d="M373.71,947.05H363.1a1.1,1.1,0,0,1-.85-.42,1.05,1.05,0,0,1-.17-.92l4.34-13.84a.88.88,0,0,1,.88-.64,1.07,1.07,0,0,1,1,.64l6.27,13.84a1,1,0,0,1,0,.92A1,1,0,0,1,373.71,947.05Z" transform="translate(-70.96 -50.47)" style="fill: #010202"/>
        <path d="M357.92,947.05a1.08,1.08,0,0,1-1.06-1l-1.8-25.67a.91.91,0,0,1,.83-1H356a1.07,1.07,0,0,1,1.06,1l1.8,25.66a.92.92,0,0,1-.81,1Z" transform="translate(-70.96 -50.47)" style="fill: #010202"/>
      </g>
      <g>
        <path d="M208.35,945.08h-5.6a.42.42,0,0,0-.43.42v0l.26,3.73a.43.43,0,0,1-.39.46h-6.11a.42.42,0,0,0-.44.41v.05l.27,3.74a.44.44,0,0,1-.42.45h-5.57a.42.42,0,0,0-.43.42v0l.26,3.73a.43.43,0,0,1-.39.46h-5.18a.87.87,0,0,0-.88.86s0,0,0,.07l.2,2.8a1,1,0,0,0,1,.93h25.2a.86.86,0,0,0,.86-.84v-.09L209.4,946A1,1,0,0,0,208.35,945.08Z" transform="translate(-70.96 -50.47)" style="fill: #010202"/>
        <path d="M209.28,938.83h0a.64.64,0,0,0-.11-.16l-2.5-2.33a.45.45,0,0,0-.65.62l0,0,1.64,1.54H199a.85.85,0,0,0-.88.82.41.41,0,0,0,0,.11l.26,3.73h-5.6a.87.87,0,0,0-.88.86s0,.05,0,.08l.26,3.73h-5.59a.86.86,0,0,0-.88.84.28.28,0,0,0,0,.09l.19,2.8h-3.26a.42.42,0,0,0-.44.41s0,0,0,.06a.51.51,0,0,0,.5.47H186a.87.87,0,0,0,.87-.87v-.07l-.2-2.8h5.6a.87.87,0,0,0,.87-.85v-.08l-.26-3.73h5.6a.87.87,0,0,0,.86-.86v-.08l-.26-3.73h8.68L206.34,941a.41.41,0,0,0-.1.45.52.52,0,0,0,.36.33.43.43,0,0,0,.44-.12l2.17-2.34A.46.46,0,0,0,209.28,938.83Z" transform="translate(-70.96 -50.47)" style="fill: #010202"/>
      </g>
      <g>
        <path d="M339.81,825.74l1.66,23.77h8l-1.74-24.82h-7A1,1,0,0,0,339.81,825.74Z" transform="translate(-70.96 -50.47)" style="fill: #010202"/>
        <path d="M359.61,849.51l-1.69-23.77a1.13,1.13,0,0,0-1.13-1h-7l1.74,24.82Z" transform="translate(-70.96 -50.47)" style="fill: #010202"/>
        <path d="M362.86,813.51H333.19a2.9,2.9,0,0,0-2.95,2.89,2.44,2.44,0,0,0,0,.27l2.07,29.71a3.46,3.46,0,0,0,3.39,3.17h3.65l-1.66-23.77a2.92,2.92,0,0,1,2.67-3.16H356.7a3.45,3.45,0,0,1,3.38,3.16l1.66,23.77h3.66a2.92,2.92,0,0,0,2.93-2.89,2.53,2.53,0,0,0,0-.28l-2.07-29.67A3.44,3.44,0,0,0,362.86,813.51Zm-12.12,6.68h-4.5a1.14,1.14,0,0,1-1.12-1.06,1,1,0,0,1,1-1h4.5a1.15,1.15,0,0,1,1.13,1,1,1,0,0,1-.94,1Z" transform="translate(-70.96 -50.47)" style="fill: #010202"/>
      </g>
      <g>
        <path d="M150.13,153.21h-5.6a.42.42,0,0,0-.44.41v0l.27,3.74a.44.44,0,0,1-.42.45h-6.08a.42.42,0,0,0-.44.41s0,0,0,.06l.26,3.73a.43.43,0,0,1-.39.46h-5.64a.41.41,0,0,0-.43.4s0,0,0,.06l.26,3.74a.43.43,0,0,1-.4.45h-5.16a.86.86,0,0,0-.88.84.38.38,0,0,0,0,.1l.2,2.8a1,1,0,0,0,1,.93h25.19a.87.87,0,0,0,.87-.85v-.08l-1.17-16.8A1,1,0,0,0,150.13,153.21Z" transform="translate(-70.96 -50.47)" style="fill: #010202"/>
        <path d="M151.06,147h0a.44.44,0,0,0-.12-.15l-2.49-2.33a.45.45,0,0,0-.66,0,.47.47,0,0,0,0,.66l1.65,1.53h-8.67a.86.86,0,0,0-.88.84.38.38,0,0,0,0,.1l.26,3.73h-5.6a.86.86,0,0,0-.88.84.28.28,0,0,0,0,.09L134,156h-5.6a.86.86,0,0,0-.88.84.28.28,0,0,0,0,.09l.2,2.8h-3.27a.42.42,0,0,0-.43.42v.05a.52.52,0,0,0,.5.46h3.27a.86.86,0,0,0,.86-.84v-.09l-.19-2.8H134a.87.87,0,0,0,.87-.87V156l-.27-3.74h5.6a.87.87,0,0,0,.87-.85v-.08l-.17-3.73h8.67l-1.43,1.53a.43.43,0,0,0-.09.46.5.5,0,0,0,.36.33.45.45,0,0,0,.44-.13l2.17-2.33A.49.49,0,0,0,151.06,147Z" transform="translate(-70.96 -50.47)" style="fill: #010202"/>
      </g>
    </g>
  </g>
</svg>
